<?xml version="1.0" encoding="UTF-8"?>
<!DOCTYPE svg PUBLIC "-//W3C//DTD SVG 1.1//EN" "http://www.w3.org/Graphics/SVG/1.1/DTD/svg11.dtd">
<svg xmlns="http://www.w3.org/2000/svg" version="1.1" width="512px" height="512px" style="shape-rendering:geometricPrecision; text-rendering:geometricPrecision; image-rendering:optimizeQuality; fill-rule:evenodd; clip-rule:evenodd" xmlns:xlink="http://www.w3.org/1999/xlink">
<g><path style="opacity:0.991" fill="#d9ac80" d="M 253.5,-0.5 C 254.833,-0.5 256.167,-0.5 257.5,-0.5C 340.167,42.1667 422.833,84.8333 505.5,127.5C 467.011,146.578 428.678,165.911 390.5,185.5C 307.865,142.848 225.198,100.182 142.5,57.5C 179.342,37.9117 216.342,18.5783 253.5,-0.5 Z"/></g>
<g><path style="opacity:1" fill="#f1d2b9" d="M 142.5,57.5 C 225.198,100.182 307.865,142.848 390.5,185.5C 383.692,189.405 376.692,193.072 369.5,196.5C 285.502,154.836 202.169,112.169 119.5,68.5C 127.041,64.563 134.707,60.8963 142.5,57.5 Z"/></g>
<g><path style="opacity:0.997" fill="#d8ab7f" d="M 119.5,68.5 C 202.169,112.169 285.502,154.836 369.5,196.5C 331.534,216.15 293.534,235.817 255.5,255.5C 172.453,212.309 89.1193,169.643 5.5,127.5C 43.1516,107.34 81.1516,87.6729 119.5,68.5 Z"/></g>
<g><path style="opacity:0.996" fill="#926e43" d="M 5.5,127.5 C 89.1193,169.643 172.453,212.309 255.5,255.5C 255.5,340.833 255.5,426.167 255.5,511.5C 254.833,511.5 254.167,511.5 253.5,511.5C 171.296,468.813 88.7958,426.48 6,384.5C 5.5,298.834 5.33334,213.167 5.5,127.5 Z"/></g>
<g><path style="opacity:0.996" fill="#a57d4f" d="M 505.5,127.5 C 505.667,213.167 505.5,298.834 505,384.5C 422.204,426.48 339.704,468.813 257.5,511.5C 256.833,511.5 256.167,511.5 255.5,511.5C 255.5,426.167 255.5,340.833 255.5,255.5C 293.534,235.817 331.534,216.15 369.5,196.5C 376.692,193.072 383.692,189.405 390.5,185.5C 428.678,165.911 467.011,146.578 505.5,127.5 Z"/></g>
<g><path style="opacity:1" fill="#643513" d="M 418.5,206.5 C 432.342,205.623 438.842,211.957 438,225.5C 436.761,230.741 433.928,234.908 429.5,238C 408.623,248.605 387.623,258.939 366.5,269C 351.516,271.016 344.683,264.516 346,249.5C 347.396,245.208 349.896,241.708 353.5,239C 375.259,228.121 396.925,217.287 418.5,206.5 Z"/></g>
</svg>
