<?xml version="1.0" encoding="UTF-8"?>
<!DOCTYPE svg PUBLIC "-//W3C//DTD SVG 1.1//EN" "http://www.w3.org/Graphics/SVG/1.1/DTD/svg11.dtd">
<svg xmlns="http://www.w3.org/2000/svg" version="1.1" width="512px" height="512px" style="shape-rendering:geometricPrecision; text-rendering:geometricPrecision; image-rendering:optimizeQuality; fill-rule:evenodd; clip-rule:evenodd" xmlns:xlink="http://www.w3.org/1999/xlink">
<g><path style="opacity:0.972" fill="#e4404c" d="M 252.5,25.5 C 323.899,26.7729 375.065,59.4396 406,123.5C 428.821,182.743 421.821,238.076 385,289.5C 344.224,332.277 302.724,374.444 260.5,416C 255.219,419.055 250.885,417.888 247.5,412.5C 284.415,374.084 321.915,336.084 360,298.5C 400.776,250.029 411.776,195.363 393,134.5C 367.251,70.8871 320.418,34.5538 252.5,25.5 Z"/></g>
<g><path style="opacity:1" fill="#fc4655" d="M 252.5,25.5 C 320.418,34.5538 367.251,70.8871 393,134.5C 411.776,195.363 400.776,250.029 360,298.5C 321.915,336.084 284.415,374.084 247.5,412.5C 211.201,376.701 175.035,340.701 139,304.5C 92.4529,253.102 80.4529,194.435 103,128.5C 128.75,69.4303 173.583,35.2636 237.5,26C 242.489,25.5007 247.489,25.3341 252.5,25.5 Z M 245.5,100.5 C 287.77,98.8744 318.27,116.874 337,154.5C 352.413,201.6 339.579,238.766 298.5,266C 283.8,273.758 268.133,277.592 251.5,277.5C 208.191,272.367 180.691,248.7 169,206.5C 162.961,164.752 177.795,132.919 213.5,111C 223.724,105.758 234.391,102.258 245.5,100.5 Z"/></g>
<g><path style="opacity:0.966" fill="#e4404d" d="M 245.5,100.5 C 234.391,102.258 223.724,105.758 213.5,111C 177.795,132.919 162.961,164.752 169,206.5C 180.691,248.7 208.191,272.367 251.5,277.5C 207.731,280.543 176.231,262.543 157,223.5C 141.396,178.654 152.563,142.154 190.5,114C 207.248,103.215 225.582,98.7153 245.5,100.5 Z"/></g>
<g><path style="opacity:0.981" fill="#cfcfcf" d="M 233.5,447.5 C 248.17,447.333 262.837,447.5 277.5,448C 291.406,448.581 304.74,451.581 317.5,457C 325.491,463.382 325.491,469.715 317.5,476C 305.092,481.458 292.092,484.458 278.5,485C 263.167,485.667 247.833,485.667 232.5,485C 220.501,484.278 208.835,481.945 197.5,478C 185.894,472.782 184.561,465.782 193.5,457C 206.449,451.714 219.783,448.548 233.5,447.5 Z"/></g>
</svg>
