<?xml version="1.0" encoding="UTF-8"?>
<!DOCTYPE svg PUBLIC "-//W3C//DTD SVG 1.1//EN" "http://www.w3.org/Graphics/SVG/1.1/DTD/svg11.dtd">
<svg xmlns="http://www.w3.org/2000/svg" version="1.1" width="512px" height="512px" style="shape-rendering:geometricPrecision; text-rendering:geometricPrecision; image-rendering:optimizeQuality; fill-rule:evenodd; clip-rule:evenodd" xmlns:xlink="http://www.w3.org/1999/xlink">
<g><path style="opacity:0.997" fill="#fed37c" d="M 134.5,127.5 C 93.1667,127.5 51.8333,127.5 10.5,127.5C 10.1667,127.5 9.83333,127.5 9.5,127.5C 9.33398,122.156 9.50065,116.823 10,111.5C 12.5274,102.637 18.3607,97.8032 27.5,97C 56.8333,96.3333 86.1667,96.3333 115.5,97C 124.072,97.3666 129.906,101.533 133,109.5C 134.239,115.435 134.739,121.435 134.5,127.5 Z"/></g>
<g><path style="opacity:0.895" fill="#1c4256" d="M 330.5,118.5 C 326.789,122.685 325.456,127.685 326.5,133.5C 315.162,133.667 303.828,133.5 292.5,133C 287.857,130.928 286.357,127.428 288,122.5C 289.214,120.951 290.714,119.785 292.5,119C 305.162,118.5 317.829,118.333 330.5,118.5 Z"/></g>
<g><path style="opacity:0.99" fill="#faa21b" d="M 330.5,118.5 C 341.888,118.117 353.221,118.617 364.5,120C 378.732,125.77 385.732,136.437 385.5,152C 385.777,159.885 383.777,167.051 379.5,173.5C 374.45,179.363 368.116,183.196 360.5,185C 354.175,185.5 347.842,185.666 341.5,185.5C 337.154,185.666 332.821,185.499 328.5,185C 328,184.5 327.5,184 327,183.5C 326.5,166.837 326.333,150.17 326.5,133.5C 325.456,127.685 326.789,122.685 330.5,118.5 Z"/></g>
<g><path style="opacity:1" fill="#d78e44" d="M 10.5,127.5 C 51.8333,127.5 93.1667,127.5 134.5,127.5C 134.5,130.833 134.5,134.167 134.5,137.5C 93.1667,137.5 51.8333,137.5 10.5,137.5C 10.5,134.167 10.5,130.833 10.5,127.5 Z"/></g>
<g><path style="opacity:1" fill="#ebb261" d="M 9.5,127.5 C 9.83333,127.5 10.1667,127.5 10.5,127.5C 10.5,130.833 10.5,134.167 10.5,137.5C 51.8333,137.5 93.1667,137.5 134.5,137.5C 134.5,137.833 134.5,138.167 134.5,138.5C 92.8333,138.5 51.1667,138.5 9.5,138.5C 9.5,134.833 9.5,131.167 9.5,127.5 Z"/></g>
<g><path style="opacity:0.998" fill="#ffd47c" d="M 9.5,138.5 C 51.1667,138.5 92.8333,138.5 134.5,138.5C 134.667,154.837 134.5,171.17 134,187.5C 133.181,196.653 128.347,202.487 119.5,205C 110.84,205.5 102.173,205.666 93.5,205.5C 79.1667,204.167 64.8333,204.167 50.5,205.5C 41.8269,205.666 33.1603,205.5 24.5,205C 16.6578,203.158 11.8245,198.324 10,190.5C 9.50006,173.17 9.33339,155.837 9.5,138.5 Z"/></g>
<g><path style="opacity:0.993" fill="#fec008" d="M 379.5,173.5 C 388.637,198.91 397.97,224.244 407.5,249.5C 369.977,255.182 346.477,276.515 337,313.5C 336.077,324.916 336.577,336.249 338.5,347.5C 297.833,347.5 257.167,347.5 216.5,347.5C 208.833,347.5 201.167,347.5 193.5,347.5C 186.833,347.5 180.167,347.5 173.5,347.5C 161.167,347.5 148.833,347.5 136.5,347.5C 129.833,347.5 123.167,347.5 116.5,347.5C 108.833,347.5 101.167,347.5 93.5,347.5C 88.8215,347.666 84.1548,347.499 79.5,347C 78.5838,346.626 77.7504,346.126 77,345.5C 75.6877,319.897 79.8543,295.23 89.5,271.5C 93.7401,264.074 98.2401,256.741 103,249.5C 107.003,244.665 111.17,239.998 115.5,235.5C 124.602,226.943 135.269,220.943 147.5,217.5C 184.137,216.352 220.804,216.186 257.5,217C 258.527,217.513 259.527,218.013 260.5,218.5C 261.785,225.88 261.285,233.214 259,240.5C 255.749,257.099 260.916,270.265 274.5,280C 291.018,289.547 308.685,293.88 327.5,293C 343.25,283.684 352.083,269.851 354,251.5C 354.778,228.556 350.611,206.556 341.5,185.5C 347.842,185.666 354.175,185.5 360.5,185C 368.116,183.196 374.45,179.363 379.5,173.5 Z"/></g>
<g><path style="opacity:0.976" fill="#1c4156" d="M 260.5,218.5 C 259.527,218.013 258.527,217.513 257.5,217C 220.804,216.186 184.137,216.352 147.5,217.5C 147.123,210.743 147.623,204.076 149,197.5C 152.22,190.308 157.72,186.142 165.5,185C 190.833,184.333 216.167,184.333 241.5,185C 251.429,186.261 257.595,191.761 260,201.5C 260.499,207.157 260.666,212.824 260.5,218.5 Z"/></g>
<g><path style="opacity:0.984" fill="#fba31b" d="M 93.5,205.5 C 93.3338,211.509 93.5005,217.509 94,223.5C 100.818,228.157 107.985,232.157 115.5,235.5C 111.17,239.998 107.003,244.665 103,249.5C 98.2401,256.741 93.7401,264.074 89.5,271.5C 76.9803,263.984 64.4803,256.317 52,248.5C 50.5342,234.264 50.0342,219.931 50.5,205.5C 64.8333,204.167 79.1667,204.167 93.5,205.5 Z"/></g>
<g><path style="opacity:1" fill="#fba41e" d="M 146.5,245.5 C 169.502,245.333 192.502,245.5 215.5,246C 221.083,247.243 225.249,250.41 228,255.5C 228.667,274.5 228.667,293.5 228,312.5C 226.594,317.573 223.428,321.073 218.5,323C 189.167,323.667 159.833,323.667 130.5,323C 120.558,318.342 117.724,310.842 122,300.5C 126.942,284.342 132.275,268.342 138,252.5C 140.441,249.546 143.275,247.213 146.5,245.5 Z"/></g>
<g><path style="opacity:1" fill="#fba31a" d="M 407.5,249.5 C 408.871,251.936 409.871,254.603 410.5,257.5C 382.948,260.211 362.781,273.878 350,298.5C 344.104,314.461 342.938,330.794 346.5,347.5C 343.833,347.5 341.167,347.5 338.5,347.5C 336.577,336.249 336.077,324.916 337,313.5C 346.477,276.515 369.977,255.182 407.5,249.5 Z"/></g>
<g><path style="opacity:0.996" fill="#fcb50e" d="M 410.5,257.5 C 431.652,257 449.486,264.333 464,279.5C 464.667,281.167 464.667,282.833 464,284.5C 460.629,287.703 457.462,291.036 454.5,294.5C 447.5,301.167 440.5,307.833 433.5,314.5C 422.167,325.167 411.167,336.167 400.5,347.5C 393.833,354.5 387.167,361.5 380.5,368.5C 376.774,372.393 372.607,375.727 368,378.5C 362.013,375.179 357.346,370.513 354,364.5C 350.936,359.042 348.436,353.376 346.5,347.5C 342.938,330.794 344.104,314.461 350,298.5C 362.781,273.878 382.948,260.211 410.5,257.5 Z"/></g>
<g><path style="opacity:1" fill="#fffbf5" d="M 153.5,262.5 C 172.503,262.333 191.503,262.5 210.5,263C 214.566,266.745 214.233,270.078 209.5,273C 191.5,273.667 173.5,273.667 155.5,273C 151.018,270.278 150.351,266.778 153.5,262.5 Z"/></g>
<g><path style="opacity:1" fill="#fffbf7" d="M 147.5,279.5 C 168.169,279.333 188.836,279.5 209.5,280C 214.395,282.823 214.729,286.157 210.5,290C 189.167,290.667 167.833,290.667 146.5,290C 142.514,286.105 142.847,282.605 147.5,279.5 Z"/></g>
<g><path style="opacity:0.983" fill="#2e343a" d="M 454.5,294.5 C 477.548,300.379 492.715,314.712 500,337.5C 506.523,368.631 496.356,392.465 469.5,409C 435.623,422.828 408.123,414.994 387,385.5C 384.139,380.083 381.973,374.416 380.5,368.5C 387.167,361.5 393.833,354.5 400.5,347.5C 400.147,369.288 410.147,384.122 430.5,392C 460.139,395.184 476.473,382.018 479.5,352.5C 477.639,333.138 467.305,320.972 448.5,316C 443.316,315.826 438.316,315.326 433.5,314.5C 440.5,307.833 447.5,301.167 454.5,294.5 Z"/></g>
<g><path style="opacity:1" fill="#fffefd" d="M 137.5,297.5 C 161.836,297.333 186.169,297.5 210.5,298C 214.5,301 214.5,304 210.5,307C 186.167,307.667 161.833,307.667 137.5,307C 134.875,303.763 134.875,300.596 137.5,297.5 Z"/></g>
<g><path style="opacity:1" fill="#a1aab6" d="M 433.5,314.5 C 438.316,315.326 443.316,315.826 448.5,316C 467.305,320.972 477.639,333.138 479.5,352.5C 476.473,382.018 460.139,395.184 430.5,392C 410.147,384.122 400.147,369.288 400.5,347.5C 411.167,336.167 422.167,325.167 433.5,314.5 Z"/></g>
<g><path style="opacity:1" fill="#e5e5e5" d="M 433.5,335.5 C 453.499,333.992 461.665,342.992 458,362.5C 452.838,371.783 445.005,375.283 434.5,373C 422.692,367.256 418.858,358.089 423,345.5C 425.738,341.26 429.238,337.926 433.5,335.5 Z"/></g>
<g><path style="opacity:0.981" fill="#2e343a" d="M 93.5,347.5 C 101.167,347.5 108.833,347.5 116.5,347.5C 114.336,368.004 122.67,382.504 141.5,391C 167.375,396.983 184.541,387.483 193,362.5C 193.499,357.511 193.666,352.511 193.5,347.5C 201.167,347.5 208.833,347.5 216.5,347.5C 217.652,376.716 205.318,397.883 179.5,411C 150.794,421.196 126.294,415.029 106,392.5C 96.2535,379.088 92.0868,364.088 93.5,347.5 Z"/></g>
<g><path style="opacity:1" fill="#a1a9b6" d="M 116.5,347.5 C 123.167,347.5 129.833,347.5 136.5,347.5C 133.638,362.126 139.471,370.793 154,373.5C 169.468,371.566 175.968,362.9 173.5,347.5C 180.167,347.5 186.833,347.5 193.5,347.5C 193.666,352.511 193.499,357.511 193,362.5C 184.541,387.483 167.375,396.983 141.5,391C 122.67,382.504 114.336,368.004 116.5,347.5 Z"/></g>
<g><path style="opacity:1" fill="#e5e5e5" d="M 136.5,347.5 C 148.833,347.5 161.167,347.5 173.5,347.5C 175.968,362.9 169.468,371.566 154,373.5C 139.471,370.793 133.638,362.126 136.5,347.5 Z"/></g>
</svg>
