<?xml version="1.0" encoding="UTF-8"?>
<!DOCTYPE svg PUBLIC "-//W3C//DTD SVG 1.1//EN" "http://www.w3.org/Graphics/SVG/1.1/DTD/svg11.dtd">
<svg xmlns="http://www.w3.org/2000/svg" version="1.1" width="512px" height="512px" style="shape-rendering:geometricPrecision; text-rendering:geometricPrecision; image-rendering:optimizeQuality; fill-rule:evenodd; clip-rule:evenodd" xmlns:xlink="http://www.w3.org/1999/xlink">
<g><path style="opacity:1" fill="#e7c699" d="M 255.5,84.5 C 255.937,86.0744 256.937,87.2411 258.5,88C 301.527,112.512 344.527,137.012 387.5,161.5C 387.5,162.167 387.5,162.833 387.5,163.5C 371.5,172.5 355.5,181.5 339.5,190.5C 339.5,189.833 339.167,189.5 338.5,189.5C 292.671,163.753 247.004,137.753 201.5,111.5C 215.103,103.359 228.77,95.1927 242.5,87C 243.381,86.2917 244.047,85.4584 244.5,84.5C 248.124,81.9806 251.79,81.9806 255.5,84.5 Z"/></g>
<g><path style="opacity:1" fill="#fefefd" d="M 201.5,111.5 C 247.004,137.753 292.671,163.753 338.5,189.5C 338.063,191.074 337.063,192.241 335.5,193C 326.897,197.806 318.23,202.306 309.5,206.5C 263.804,180.657 218.47,154.323 173.5,127.5C 182.861,122.155 192.194,116.821 201.5,111.5 Z"/></g>
<g><path style="opacity:1" fill="#e6c599" d="M 173.5,127.5 C 218.47,154.323 263.804,180.657 309.5,206.5C 309.5,206.833 309.5,207.167 309.5,207.5C 290.032,219.071 270.365,230.404 250.5,241.5C 247.111,240.309 243.778,238.809 240.5,237C 198.604,212.222 156.604,187.722 114.5,163.5C 134.144,151.535 153.811,139.535 173.5,127.5 Z"/></g>
<g><path style="opacity:1" fill="#a18761" d="M 114.5,163.5 C 156.604,187.722 198.604,212.222 240.5,237C 243.778,238.809 247.111,240.309 250.5,241.5C 249.52,254.087 249.187,266.754 249.5,279.5C 204.362,252.763 159.362,225.763 114.5,198.5C 114.5,190.5 114.5,182.5 114.5,174.5C 114.5,170.833 114.5,167.167 114.5,163.5 Z"/></g>
<g><path style="opacity:1" fill="#886b4e" d="M 387.5,163.5 C 388.495,175.989 388.829,188.656 388.5,201.5C 372.367,211.404 356.034,221.071 339.5,230.5C 339.5,217.167 339.5,203.833 339.5,190.5C 355.5,181.5 371.5,172.5 387.5,163.5 Z"/></g>
<g><path style="opacity:1" fill="#aa7331" d="M 387.5,161.5 C 388.117,161.611 388.617,161.944 389,162.5C 389.498,165.817 389.665,169.15 389.5,172.5C 389.5,182.167 389.5,191.833 389.5,201.5C 389.167,201.5 388.833,201.5 388.5,201.5C 388.829,188.656 388.495,175.989 387.5,163.5C 387.5,162.833 387.5,162.167 387.5,161.5 Z"/></g>
<g><path style="opacity:1" fill="#c06c10" d="M 389.5,172.5 C 398.106,176.805 406.439,181.638 414.5,187C 406.139,191.845 397.806,196.678 389.5,201.5C 389.5,191.833 389.5,182.167 389.5,172.5 Z"/></g>
<g><path style="opacity:1" fill="#bf6c10" d="M 114.5,174.5 C 114.5,182.5 114.5,190.5 114.5,198.5C 107.99,194.747 101.656,190.747 95.5,186.5C 101.693,182.239 108.026,178.239 114.5,174.5 Z"/></g>
<g><path style="opacity:0.998" fill="#fdbb1f" d="M 244.5,84.5 C 244.047,85.4584 243.381,86.2917 242.5,87C 228.77,95.1927 215.103,103.359 201.5,111.5C 192.194,116.821 182.861,122.155 173.5,127.5C 153.811,139.535 134.144,151.535 114.5,163.5C 114.5,167.167 114.5,170.833 114.5,174.5C 108.026,178.239 101.693,182.239 95.5,186.5C 101.656,190.747 107.99,194.747 114.5,198.5C 159.362,225.763 204.362,252.763 249.5,279.5C 250.167,280.167 250.833,280.833 251.5,281.5C 251.5,281.833 251.5,282.167 251.5,282.5C 237.659,295.838 223.326,308.672 208.5,321C 206.833,321.667 205.167,321.667 203.5,321C 161.93,295.913 120.263,271.08 78.5,246.5C 68.8978,241.119 59.7311,235.119 51,228.5C 49.9726,224.82 50.8059,221.653 53.5,219C 66.963,208.702 79.963,197.869 92.5,186.5C 79.4717,173.972 65.9717,161.972 52,150.5C 49.614,146.206 50.114,142.373 53.5,139C 102.833,109.667 152.167,80.3333 201.5,51C 204.167,50.3333 206.833,50.3333 209.5,51C 220.733,62.735 232.399,73.9017 244.5,84.5 Z"/></g>
<g><path style="opacity:0.998" fill="#fdbb1f" d="M 429.5,249.5 C 385.878,275.227 342.045,300.56 298,325.5C 296.373,325.375 294.873,324.875 293.5,324C 280.327,309.661 266.661,295.827 252.5,282.5C 252.167,282.5 251.833,282.5 251.5,282.5C 251.5,282.167 251.5,281.833 251.5,281.5C 271.665,270.921 291.331,259.588 310.5,247.5C 320.367,242.071 330.033,236.404 339.5,230.5C 356.034,221.071 372.367,211.404 388.5,201.5C 388.833,201.5 389.167,201.5 389.5,201.5C 397.806,196.678 406.139,191.845 414.5,187C 406.439,181.638 398.106,176.805 389.5,172.5C 389.665,169.15 389.498,165.817 389,162.5C 388.617,161.944 388.117,161.611 387.5,161.5C 344.527,137.012 301.527,112.512 258.5,88C 256.937,87.2411 255.937,86.0744 255.5,84.5C 268.941,73.5675 282.274,62.4008 295.5,51C 297.365,49.6986 299.365,49.3653 301.5,50C 353.965,80.0671 406.298,110.4 458.5,141C 460.923,144.379 461.09,147.879 459,151.5C 444.688,162.978 430.521,174.645 416.5,186.5C 431.053,198.705 445.553,211.038 460,223.5C 460.893,226.916 460.393,230.083 458.5,233C 448.928,238.756 439.261,244.256 429.5,249.5 Z"/></g>
<g><path style="opacity:1" fill="#e5e4e3" d="M 338.5,189.5 C 339.167,189.5 339.5,189.833 339.5,190.5C 339.5,203.833 339.5,217.167 339.5,230.5C 330.033,236.404 320.367,242.071 310.5,247.5C 310.829,233.99 310.496,220.656 309.5,207.5C 309.5,207.167 309.5,206.833 309.5,206.5C 318.23,202.306 326.897,197.806 335.5,193C 337.063,192.241 338.063,191.074 338.5,189.5 Z"/></g>
<g><path style="opacity:1" fill="#876a4d" d="M 309.5,207.5 C 310.496,220.656 310.829,233.99 310.5,247.5C 291.331,259.588 271.665,270.921 251.5,281.5C 250.833,280.833 250.167,280.167 249.5,279.5C 249.187,266.754 249.52,254.087 250.5,241.5C 270.365,230.404 290.032,219.071 309.5,207.5 Z"/></g>
<g><path style="opacity:0.993" fill="#f9a83d" d="M 78.5,246.5 C 120.263,271.08 161.93,295.913 203.5,321C 205.167,321.667 206.833,321.667 208.5,321C 223.326,308.672 237.659,295.838 251.5,282.5C 251.833,282.5 252.167,282.5 252.5,282.5C 252.832,342.002 252.499,401.336 251.5,460.5C 193.907,428.757 136.407,396.757 79,364.5C 78.5,325.168 78.3333,285.835 78.5,246.5 Z"/></g>
<g><path style="opacity:0.994" fill="#f29a2f" d="M 429.5,249.5 C 429.667,287.835 429.5,326.168 429,364.5C 370.086,396.706 311.253,429.04 252.5,461.5C 251.893,461.376 251.56,461.043 251.5,460.5C 252.499,401.336 252.832,342.002 252.5,282.5C 266.661,295.827 280.327,309.661 293.5,324C 294.873,324.875 296.373,325.375 298,325.5C 342.045,300.56 385.878,275.227 429.5,249.5 Z"/></g>
<g><path style="opacity:1" fill="#e9e8e6" d="M 183.5,355.5 C 202.055,366.363 220.555,377.363 239,388.5C 239.667,403.833 239.667,419.167 239,434.5C 220.667,423.5 202.333,412.5 184,401.5C 183.5,386.17 183.333,370.837 183.5,355.5 Z"/></g>
<g><path style="opacity:1" fill="#9e9e9e" d="M 189.5,364.5 C 188.505,376.322 188.172,388.322 188.5,400.5C 187.175,388.327 187.175,375.994 188.5,363.5C 189.107,363.624 189.44,363.957 189.5,364.5 Z"/></g>
<g><path style="opacity:1" fill="#1b1b1b" d="M 189.5,364.5 C 191.229,365.117 192.729,366.117 194,367.5C 194.667,379.5 194.667,391.5 194,403.5C 192.22,402.361 190.386,401.361 188.5,400.5C 188.172,388.322 188.505,376.322 189.5,364.5 Z"/></g>
<g><path style="opacity:1" fill="#1b1b1b" d="M 198.5,370.5 C 199.496,370.414 200.329,370.748 201,371.5C 201.833,383.514 201.666,395.514 200.5,407.5C 199.914,407.291 199.414,406.957 199,406.5C 198.5,394.505 198.333,382.505 198.5,370.5 Z"/></g>
<g><path style="opacity:1" fill="#1b1b1b" d="M 205.5,374.5 C 207.426,375.242 209.259,376.242 211,377.5C 211.667,389.5 211.667,401.5 211,413.5C 209.333,412.5 207.667,411.5 206,410.5C 205.5,398.505 205.333,386.505 205.5,374.5 Z"/></g>
<g><path style="opacity:1" fill="#1b1b1b" d="M 218.5,381.5 C 218.828,393.678 218.495,405.678 217.5,417.5C 216.883,417.389 216.383,417.056 216,416.5C 215.167,404.486 215.334,392.486 216.5,380.5C 217.183,380.863 217.85,381.196 218.5,381.5 Z"/></g>
<g><path style="opacity:1" fill="#acacac" d="M 218.5,381.5 C 219.825,393.673 219.825,406.006 218.5,418.5C 217.893,418.376 217.56,418.043 217.5,417.5C 218.495,405.678 218.828,393.678 218.5,381.5 Z"/></g>
<g><path style="opacity:1" fill="#6c6c6c" d="M 225.5,386.5 C 224.505,397.988 224.172,409.655 224.5,421.5C 223.175,409.66 223.175,397.66 224.5,385.5C 225.107,385.624 225.44,385.957 225.5,386.5 Z"/></g>
<g><path style="opacity:1" fill="#292929" d="M 225.5,386.5 C 226.83,392.295 227.496,398.462 227.5,405C 227.333,411.167 227.167,417.333 227,423.5C 226.292,422.619 225.458,421.953 224.5,421.5C 224.172,409.655 224.505,397.988 225.5,386.5 Z"/></g>
<g><path style="opacity:1" fill="#1a1a1a" d="M 232.5,390.5 C 233.15,390.804 233.817,391.137 234.5,391.5C 235.833,403.5 235.833,415.5 234.5,427.5C 233.914,427.291 233.414,426.957 233,426.5C 232.5,414.505 232.333,402.505 232.5,390.5 Z"/></g>
</svg>
