<?xml version="1.0" encoding="UTF-8"?>
<!DOCTYPE svg PUBLIC "-//W3C//DTD SVG 1.1//EN" "http://www.w3.org/Graphics/SVG/1.1/DTD/svg11.dtd">
<svg xmlns="http://www.w3.org/2000/svg" version="1.1" width="512px" height="512px" style="shape-rendering:geometricPrecision; text-rendering:geometricPrecision; image-rendering:optimizeQuality; fill-rule:evenodd; clip-rule:evenodd" xmlns:xlink="http://www.w3.org/1999/xlink">
<g><path style="opacity:0.984" fill="#3c66ba" d="M 309.5,50.5 C 291.05,45.5743 273.717,48.241 257.5,58.5C 244.334,49.7466 230.667,41.7466 216.5,34.5C 229.626,25.1035 244.293,21.6035 260.5,24C 265.136,24.8786 269.469,26.5452 273.5,29C 285.729,35.941 297.729,43.1077 309.5,50.5 Z"/></g>
<g><path style="opacity:0.994" fill="#1143a8" d="M 216.5,34.5 C 230.667,41.7466 244.334,49.7466 257.5,58.5C 250.456,62.696 243.789,67.5293 237.5,73C 227.508,83.1447 218.174,93.6447 209.5,104.5C 206.422,100.678 203.588,96.6779 201,92.5C 199.009,95.7638 197.009,99.0971 195,102.5C 193.961,103.71 192.794,104.71 191.5,105.5C 181.719,100.776 172.052,95.7757 162.5,90.5C 175.4,66.9329 193.4,48.2662 216.5,34.5 Z"/></g>
<g><path style="opacity:0.994" fill="#1d438e" d="M 309.5,50.5 C 321.972,57.1601 329.805,67.4934 333,81.5C 336.278,94.501 336.278,107.501 333,120.5C 331.313,128.58 329.313,136.58 327,144.5C 319.982,166.389 312.482,188.056 304.5,209.5C 292.711,235.1 281.378,261.1 270.5,287.5C 269.833,287.5 269.5,287.833 269.5,288.5C 266.061,296.842 262.061,304.842 257.5,312.5C 256.099,311.479 254.765,310.479 253.5,309.5C 237.081,291.582 221.581,272.915 207,253.5C 196.389,237.946 188.222,221.279 182.5,203.5C 179.745,176.869 184.745,151.869 197.5,128.5C 198.078,131.37 199.745,133.037 202.5,133.5C 205.167,123.5 211.5,117.167 221.5,114.5C 221.5,113.5 221.5,112.5 221.5,111.5C 216.55,110.695 212.55,108.362 209.5,104.5C 218.174,93.6447 227.508,83.1447 237.5,73C 243.789,67.5293 250.456,62.696 257.5,58.5C 273.717,48.241 291.05,45.5743 309.5,50.5 Z M 262.5,94.5 C 262.5,96.8333 262.5,99.1667 262.5,101.5C 260.005,131.17 246.672,154.503 222.5,171.5C 220.703,172.73 218.703,173.396 216.5,173.5C 215.381,145.214 225.715,121.714 247.5,103C 252.235,99.6344 257.235,96.8011 262.5,94.5 Z"/></g>
<g><path style="opacity:0.993" fill="#3d66ba" d="M 162.5,90.5 C 172.052,95.7757 181.719,100.776 191.5,105.5C 187.869,107.988 184.203,110.488 180.5,113C 187.591,116.59 193.258,121.757 197.5,128.5C 184.745,151.869 179.745,176.869 182.5,203.5C 169.466,195.316 156.132,187.649 142.5,180.5C 138.397,148.232 145.064,118.232 162.5,90.5 Z"/></g>
<g><path style="opacity:0.981" fill="#3c66ba" d="M 295.5,119.5 C 284.41,113.786 273.41,107.786 262.5,101.5C 262.5,99.1667 262.5,96.8333 262.5,94.5C 270.65,90.1915 278.65,90.6915 286.5,96C 292.739,102.545 295.739,110.378 295.5,119.5 Z"/></g>
<g><path style="opacity:1" fill="#fafafc" d="M 209.5,104.5 C 212.55,108.362 216.55,110.695 221.5,111.5C 221.5,112.5 221.5,113.5 221.5,114.5C 211.5,117.167 205.167,123.5 202.5,133.5C 199.745,133.037 198.078,131.37 197.5,128.5C 193.258,121.757 187.591,116.59 180.5,113C 184.203,110.488 187.869,107.988 191.5,105.5C 192.794,104.71 193.961,103.71 195,102.5C 197.009,99.0971 199.009,95.7638 201,92.5C 203.588,96.6779 206.422,100.678 209.5,104.5 Z"/></g>
<g><path style="opacity:1" fill="#1243a8" d="M 262.5,101.5 C 273.41,107.786 284.41,113.786 295.5,119.5C 294.398,138.891 287.898,156.225 276,171.5C 270.263,177.741 264.097,183.408 257.5,188.5C 256.504,188.414 255.671,188.748 255,189.5C 244.354,183.095 233.52,177.095 222.5,171.5C 246.672,154.503 260.005,131.17 262.5,101.5 Z"/></g>
<g><path style="opacity:0.996" fill="#3d66b9" d="M 222.5,171.5 C 233.52,177.095 244.354,183.095 255,189.5C 255.671,188.748 256.504,188.414 257.5,188.5C 253.054,190.886 248.388,193.053 243.5,195C 227.058,196.694 218.058,189.527 216.5,173.5C 218.703,173.396 220.703,172.73 222.5,171.5 Z"/></g>
<g><path style="opacity:0.994" fill="#1343a7" d="M 142.5,180.5 C 156.132,187.649 169.466,195.316 182.5,203.5C 188.222,221.279 196.389,237.946 207,253.5C 221.581,272.915 237.081,291.582 253.5,309.5C 241.392,302.943 229.392,296.11 217.5,289C 201.367,272.86 186.533,255.693 173,237.5C 172.184,236.177 171.017,235.511 169.5,235.5C 162.519,224.885 156.019,213.885 150,202.5C 146.631,195.436 144.131,188.102 142.5,180.5 Z"/></g>
<g><path style="opacity:0.996" fill="#fed551" d="M 304.5,209.5 C 343.833,232.5 383.167,255.5 422.5,278.5C 405.833,288.167 389.167,297.833 372.5,307.5C 345.967,322.596 319.634,337.929 293.5,353.5C 283.967,359.099 274.3,364.433 264.5,369.5C 259.272,365.398 255.772,360.065 254,353.5C 253.311,352.643 252.478,351.977 251.5,351.5C 249.21,354.494 247.376,357.827 246,361.5C 244,364.666 241.5,367.332 238.5,369.5C 189.726,340.941 140.726,312.608 91.5,284.5C 90.7492,285.376 90.2492,286.376 90,287.5C 89.3292,286.748 88.4959,286.414 87.5,286.5C 87.9709,285.099 88.6376,283.766 89.5,282.5C 116.194,266.822 142.861,251.155 169.5,235.5C 171.017,235.511 172.184,236.177 173,237.5C 186.533,255.693 201.367,272.86 217.5,289C 229.392,296.11 241.392,302.943 253.5,309.5C 254.765,310.479 256.099,311.479 257.5,312.5C 262.061,304.842 266.061,296.842 269.5,288.5C 286.521,298.678 303.854,308.345 321.5,317.5C 344.958,304.603 368.291,291.436 391.5,278C 374.617,267.391 357.283,257.558 339.5,248.5C 316.348,261.242 293.348,274.242 270.5,287.5C 281.378,261.1 292.711,235.1 304.5,209.5 Z"/></g>
<g><path style="opacity:1" fill="#fcfaf5" d="M 269.5,288.5 C 269.5,287.833 269.833,287.5 270.5,287.5C 293.348,274.242 316.348,261.242 339.5,248.5C 357.283,257.558 374.617,267.391 391.5,278C 368.291,291.436 344.958,304.603 321.5,317.5C 303.854,308.345 286.521,298.678 269.5,288.5 Z"/></g>
<g><path style="opacity:1" fill="#474642" d="M 347.5,259.5 C 347.586,260.496 347.252,261.329 346.5,262C 342.931,263.942 339.598,266.108 336.5,268.5C 322.072,276.411 307.739,284.578 293.5,293C 290.426,292.797 287.759,291.463 285.5,289C 303.5,278.667 321.5,268.333 339.5,258C 342.407,257.282 345.074,257.782 347.5,259.5 Z"/></g>
<g><path style="opacity:1" fill="#ebcc6b" d="M 347.5,259.5 C 349.332,260.14 349.665,261.14 348.5,262.5C 344.711,264.963 340.711,266.963 336.5,268.5C 339.598,266.108 342.931,263.942 346.5,262C 347.252,261.329 347.586,260.496 347.5,259.5 Z"/></g>
<g><path style="opacity:1" fill="#484642" d="M 361.5,268.5 C 357.228,270.774 353.228,273.441 349.5,276.5C 334.868,284.778 320.201,293.111 305.5,301.5C 303.167,300 300.833,298.5 298.5,297C 317.5,286.167 336.5,275.333 355.5,264.5C 357.911,265.361 359.911,266.694 361.5,268.5 Z"/></g>
<g><path style="opacity:1" fill="#4a4843" d="M 367.5,272.5 C 369.783,272.608 371.783,273.441 373.5,275C 374.711,275.893 374.711,276.726 373.5,277.5C 361.996,284.42 350.329,291.086 338.5,297.5C 336.032,296.197 333.699,294.697 331.5,293C 343.475,285.854 355.475,279.021 367.5,272.5 Z"/></g>
<g><path style="opacity:1" fill="#eccd6c" d="M 361.5,268.5 C 363.379,268.393 363.712,268.893 362.5,270C 358.256,272.428 353.922,274.594 349.5,276.5C 353.228,273.441 357.228,270.774 361.5,268.5 Z"/></g>
<g><path style="opacity:1" fill="#cea03a" d="M 422.5,278.5 C 423.163,280.641 423.497,282.975 423.5,285.5C 422.881,320.164 422.215,354.831 421.5,389.5C 405.304,399.43 388.971,409.097 372.5,418.5C 372.5,381.5 372.5,344.5 372.5,307.5C 389.167,297.833 405.833,288.167 422.5,278.5 Z"/></g>
<g><path style="opacity:0.973" fill="#eec247" d="M 88.5,289.5 C 96.9619,312.382 104.962,335.548 112.5,359C 105.004,370.842 96.6702,382.009 87.5,392.5C 88.395,358.176 88.7284,323.843 88.5,289.5 Z"/></g>
<g><path style="opacity:1" fill="#eec247" d="M 372.5,307.5 C 372.5,344.5 372.5,381.5 372.5,418.5C 346.5,433.5 320.5,448.5 294.5,463.5C 294.832,426.663 294.498,389.996 293.5,353.5C 319.634,337.929 345.967,322.596 372.5,307.5 Z"/></g>
<g><path style="opacity:1" fill="#fefefc" d="M 264.5,369.5 C 268.302,373.576 272.969,376.409 278.5,378C 279.833,379.333 279.833,380.667 278.5,382C 265.946,387.053 257.28,395.887 252.5,408.5C 251.504,408.586 250.671,408.252 250,407.5C 249.14,404.367 247.64,401.7 245.5,399.5C 240.944,390.868 233.944,385.035 224.5,382C 223.167,380.667 223.167,379.333 224.5,378C 230.031,376.409 234.698,373.576 238.5,369.5C 241.5,367.332 244,364.666 246,361.5C 247.376,357.827 249.21,354.494 251.5,351.5C 252.478,351.977 253.311,352.643 254,353.5C 255.772,360.065 259.272,365.398 264.5,369.5 Z"/></g>
<g><path style="opacity:1" fill="#dcaf40" d="M 238.5,369.5 C 234.698,373.576 230.031,376.409 224.5,378C 223.167,379.333 223.167,380.667 224.5,382C 233.944,385.035 240.944,390.868 245.5,399.5C 239.977,409.2 234.644,419.033 229.5,429C 236.804,447.913 244.304,466.746 252,485.5C 252.5,459.835 252.667,434.169 252.5,408.5C 257.28,395.887 265.946,387.053 278.5,382C 279.833,380.667 279.833,379.333 278.5,378C 272.969,376.409 268.302,373.576 264.5,369.5C 274.3,364.433 283.967,359.099 293.5,353.5C 294.498,389.996 294.832,426.663 294.5,463.5C 281.981,471.172 269.314,478.672 256.5,486C 254.635,487.301 252.635,487.635 250.5,487C 196.104,455.473 141.77,423.973 87.5,392.5C 96.6702,382.009 105.004,370.842 112.5,359C 104.962,335.548 96.9619,312.382 88.5,289.5C 88.4431,288.391 88.1098,287.391 87.5,286.5C 88.4959,286.414 89.3292,286.748 90,287.5C 90.2492,286.376 90.7492,285.376 91.5,284.5C 140.726,312.608 189.726,340.941 238.5,369.5 Z"/></g>
<g><path style="opacity:1" fill="#eec248" d="M 245.5,399.5 C 247.64,401.7 249.14,404.367 250,407.5C 250.671,408.252 251.504,408.586 252.5,408.5C 252.667,434.169 252.5,459.835 252,485.5C 244.304,466.746 236.804,447.913 229.5,429C 234.644,419.033 239.977,409.2 245.5,399.5 Z"/></g>
</svg>
