<?xml version="1.0" encoding="UTF-8"?>
<!DOCTYPE svg PUBLIC "-//W3C//DTD SVG 1.1//EN" "http://www.w3.org/Graphics/SVG/1.1/DTD/svg11.dtd">
<svg xmlns="http://www.w3.org/2000/svg" version="1.1" width="512px" height="512px" style="shape-rendering:geometricPrecision; text-rendering:geometricPrecision; image-rendering:optimizeQuality; fill-rule:evenodd; clip-rule:evenodd" xmlns:xlink="http://www.w3.org/1999/xlink">
<g><path style="opacity:0.994" fill="#e2b476" d="M 160.5,-0.5 C 164.167,-0.5 167.833,-0.5 171.5,-0.5C 172.29,0.40128 173.29,1.06795 174.5,1.5C 168.752,11.9971 162.752,22.3304 156.5,32.5C 147.331,27.7501 138.331,22.7501 129.5,17.5C 140.033,11.7374 150.366,5.73744 160.5,-0.5 Z"/></g>
<g><path style="opacity:0.992" fill="#e5bb84" d="M 174.5,1.5 C 180.122,4.47194 185.455,7.80527 190.5,11.5C 184.567,21.7001 178.9,32.0334 173.5,42.5C 167.332,39.9196 161.665,36.5863 156.5,32.5C 162.752,22.3304 168.752,11.9971 174.5,1.5 Z"/></g>
<g><path style="opacity:0.995" fill="#e7c290" d="M 190.5,11.5 C 196.165,13.9969 201.498,16.9969 206.5,20.5C 199.746,30.334 193.746,40.6674 188.5,51.5C 183.299,48.737 178.299,45.737 173.5,42.5C 178.9,32.0334 184.567,21.7001 190.5,11.5 Z"/></g>
<g><path style="opacity:0.993" fill="#dea861" d="M 118.5,24.5 C 142.61,39.73 167.277,54.23 192.5,68C 193.5,68.8333 194.5,69.6667 195.5,70.5C 193.142,72.6782 190.475,74.3449 187.5,75.5C 177.366,69.2626 167.033,63.2626 156.5,57.5C 151.033,53.9294 145.367,50.5961 139.5,47.5C 134.731,44.9435 130.064,42.1102 125.5,39C 124.5,38.3333 123.5,38.3333 122.5,39C 117.029,48.1122 111.695,57.2789 106.5,66.5C 99.2336,63.1992 92.2336,59.3659 85.5,55C 83.5313,53.5002 82.198,51.6669 81.5,49.5C 81.933,46.8045 83.2663,44.6379 85.5,43C 96.4063,36.577 107.406,30.4103 118.5,24.5 Z"/></g>
<g><path style="opacity:0.987" fill="#eac99e" d="M 206.5,20.5 C 215.94,25.3886 225.273,30.5552 234.5,36C 236.734,37.6379 238.067,39.8045 238.5,42.5C 237.702,45.2306 236.035,47.3973 233.5,49C 225.449,54.0256 217.115,58.5256 208.5,62.5C 201.522,59.3455 194.855,55.6789 188.5,51.5C 193.746,40.6674 199.746,30.334 206.5,20.5 Z"/></g>
<g><path style="opacity:1" fill="#e1b171" d="M 139.5,47.5 C 138.504,47.4142 137.671,47.7476 137,48.5C 132.005,57.6461 126.839,66.6461 121.5,75.5C 116.299,72.737 111.299,69.737 106.5,66.5C 111.695,57.2789 117.029,48.1122 122.5,39C 123.5,38.3333 124.5,38.3333 125.5,39C 130.064,42.1102 134.731,44.9435 139.5,47.5 Z"/></g>
<g><path style="opacity:1" fill="#dda761" d="M 129.5,17.5 C 138.331,22.7501 147.331,27.7501 156.5,32.5C 161.665,36.5863 167.332,39.9196 173.5,42.5C 178.299,45.737 183.299,48.737 188.5,51.5C 194.855,55.6789 201.522,59.3455 208.5,62.5C 217.115,58.5256 225.449,54.0256 233.5,49C 236.035,47.3973 237.702,45.2306 238.5,42.5C 238.5,73.1667 238.5,103.833 238.5,134.5C 238.448,138.984 236.781,142.817 233.5,146C 209.806,159.512 186.139,173.012 162.5,186.5C 160.507,155.184 159.841,123.518 160.5,91.5C 169.299,85.9295 178.299,80.5962 187.5,75.5C 187.171,81.2055 187.505,86.8722 188.5,92.5C 195.084,88.6254 201.584,84.6254 208,80.5C 208.667,74.8333 208.667,69.1667 208,63.5C 205.354,66.2459 202.188,67.4126 198.5,67C 172.806,52.1549 147.139,37.3216 121.5,22.5C 124.131,20.8474 126.797,19.1807 129.5,17.5 Z"/></g>
<g><path style="opacity:0.987" fill="#cb8241" d="M 81.5,49.5 C 82.198,51.6669 83.5313,53.5002 85.5,55C 92.2336,59.3659 99.2336,63.1992 106.5,66.5C 111.299,69.737 116.299,72.737 121.5,75.5C 126.967,79.0706 132.633,82.4039 138.5,85.5C 140.537,86.8465 142.537,88.1798 144.5,89.5C 144.5,121.5 144.5,153.5 144.5,185.5C 124.888,174.357 105.221,163.191 85.5,152C 84.2986,151.097 83.4652,149.931 83,148.5C 82.8138,145.964 82.3138,143.631 81.5,141.5C 81.5,110.833 81.5,80.1667 81.5,49.5 Z"/></g>
<g><path style="opacity:1" fill="#e3b77d" d="M 139.5,47.5 C 145.367,50.5961 151.033,53.9294 156.5,57.5C 155.325,57.281 154.325,57.6143 153.5,58.5C 148.222,67.3932 143.222,76.3932 138.5,85.5C 132.633,82.4039 126.967,79.0706 121.5,75.5C 126.839,66.6461 132.005,57.6461 137,48.5C 137.671,47.7476 138.504,47.4142 139.5,47.5 Z"/></g>
<g><path style="opacity:1" fill="#e6c08c" d="M 156.5,57.5 C 167.033,63.2626 177.366,69.2626 187.5,75.5C 178.299,80.5962 169.299,85.9295 160.5,91.5C 157.904,92.2653 155.237,92.5987 152.5,92.5C 149.645,91.8832 146.978,90.8832 144.5,89.5C 142.537,88.1798 140.537,86.8465 138.5,85.5C 143.222,76.3932 148.222,67.3932 153.5,58.5C 154.325,57.6143 155.325,57.281 156.5,57.5 Z"/></g>
<g><path style="opacity:1" fill="#cc8342" d="M 121.5,22.5 C 147.139,37.3216 172.806,52.1549 198.5,67C 202.188,67.4126 205.354,66.2459 208,63.5C 208.667,69.1667 208.667,74.8333 208,80.5C 201.584,84.6254 195.084,88.6254 188.5,92.5C 187.505,86.8722 187.171,81.2055 187.5,75.5C 190.475,74.3449 193.142,72.6782 195.5,70.5C 194.5,69.6667 193.5,68.8333 192.5,68C 167.277,54.23 142.61,39.73 118.5,24.5C 119.29,23.5987 120.29,22.9321 121.5,22.5 Z"/></g>
<g><path style="opacity:1" fill="#d28f4c" d="M 144.5,89.5 C 146.978,90.8832 149.645,91.8832 152.5,92.5C 153.159,124.851 152.493,156.851 150.5,188.5C 148.181,188.008 146.181,187.008 144.5,185.5C 144.5,153.5 144.5,121.5 144.5,89.5 Z"/></g>
<g><path style="opacity:1" fill="#d89d58" d="M 160.5,91.5 C 159.841,123.518 160.507,155.184 162.5,186.5C 158.789,189.315 154.789,189.981 150.5,188.5C 152.493,156.851 153.159,124.851 152.5,92.5C 155.237,92.5987 157.904,92.2653 160.5,91.5 Z"/></g>
<g><path style="opacity:0.944" fill="#705db3" d="M 425.5,122.5 C 419.226,127.413 412.226,131.08 404.5,133.5C 404.167,132.5 403.5,131.833 402.5,131.5C 401.5,130.167 400.5,128.833 399.5,127.5C 405.685,123.907 412.019,120.574 418.5,117.5C 421.687,118.027 424.02,119.693 425.5,122.5 Z"/></g>
<g><path style="opacity:0.973" fill="#fb4655" d="M 399.5,127.5 C 400.5,128.833 401.5,130.167 402.5,131.5C 402.141,133.371 401.141,134.871 399.5,136C 396.928,138.287 393.928,139.453 390.5,139.5C 381.915,138.795 374.582,141.462 368.5,147.5C 358.719,142.776 349.052,137.776 339.5,132.5C 346.435,125.706 354.768,122.872 364.5,124C 369.982,126.671 375.315,129.505 380.5,132.5C 383.957,130.937 387.29,129.104 390.5,127C 393.555,126.366 396.555,126.532 399.5,127.5 Z"/></g>
<g><path style="opacity:0.984" fill="#45396c" d="M 425.5,122.5 C 427.41,123.975 428.576,125.975 429,128.5C 429.667,132.167 429.667,135.833 429,139.5C 423.282,143.391 417.449,147.058 411.5,150.5C 410.556,144.353 408.223,138.686 404.5,133.5C 412.226,131.08 419.226,127.413 425.5,122.5 Z"/></g>
<g><path style="opacity:0.984" fill="#5b4b8d" d="M 238.5,134.5 C 246.023,141.497 246.356,148.831 239.5,156.5C 237.407,155.955 235.407,155.122 233.5,154C 231.167,153.333 228.833,153.333 226.5,154C 212.77,162.193 199.103,170.359 185.5,178.5C 180.032,180.578 178.032,184.578 179.5,190.5C 175.465,192.848 171.465,195.182 167.5,197.5C 164.124,199.595 160.458,200.929 156.5,201.5C 153.813,201.664 151.146,201.497 148.5,201C 140.671,196.92 133.004,192.587 125.5,188C 122.691,186.259 119.691,185.092 116.5,184.5C 103.574,176.759 90.7404,168.759 78,160.5C 74.0066,153.119 75.1733,146.785 81.5,141.5C 82.3138,143.631 82.8138,145.964 83,148.5C 83.4652,149.931 84.2986,151.097 85.5,152C 105.221,163.191 124.888,174.357 144.5,185.5C 146.181,187.008 148.181,188.008 150.5,188.5C 154.789,189.981 158.789,189.315 162.5,186.5C 186.139,173.012 209.806,159.512 233.5,146C 236.781,142.817 238.448,138.984 238.5,134.5 Z"/></g>
<g><path style="opacity:0.98" fill="#af2e3a" d="M 402.5,131.5 C 403.5,131.833 404.167,132.5 404.5,133.5C 408.223,138.686 410.556,144.353 411.5,150.5C 411.19,156.793 408.19,161.126 402.5,163.5C 401.919,158.174 400.752,152.841 399,147.5C 396.926,143.923 394.093,141.256 390.5,139.5C 393.928,139.453 396.928,138.287 399.5,136C 401.141,134.871 402.141,133.371 402.5,131.5 Z"/></g>
<g><path style="opacity:0.997" fill="#d7cee8" d="M 390.5,139.5 C 394.093,141.256 396.926,143.923 399,147.5C 400.752,152.841 401.919,158.174 402.5,163.5C 401.754,167.127 401.087,170.794 400.5,174.5C 396.492,188.678 388.825,200.511 377.5,210C 374.924,211.456 372.258,212.623 369.5,213.5C 369.167,213.5 368.833,213.5 368.5,213.5C 364.334,214.056 360.668,213.056 357.5,210.5C 357.158,209.662 356.492,209.328 355.5,209.5C 349.354,196.859 348.854,183.859 354,170.5C 356.258,165.647 358.758,160.981 361.5,156.5C 362.6,155.395 363.267,154.062 363.5,152.5C 365.5,151.167 367.167,149.5 368.5,147.5C 374.582,141.462 381.915,138.795 390.5,139.5 Z"/></g>
<g><path style="opacity:0.995" fill="#ad2d38" d="M 328.5,139.5 C 337.436,144.975 346.436,150.475 355.5,156C 357.473,156.495 359.473,156.662 361.5,156.5C 358.758,160.981 356.258,165.647 354,170.5C 348.854,183.859 349.354,196.859 355.5,209.5C 351.7,207.766 348.034,205.766 344.5,203.5C 342.184,202.194 339.85,200.861 337.5,199.5C 334.78,200.86 332.114,202.193 329.5,203.5C 332.82,194.68 331.82,186.347 326.5,178.5C 330.103,176.237 333.436,173.57 336.5,170.5C 334.117,165.975 330.45,164.142 325.5,165C 321.931,166.942 318.598,169.108 315.5,171.5C 314.5,171.5 313.5,171.5 312.5,171.5C 311.372,157.756 316.705,147.089 328.5,139.5 Z"/></g>
<g><path style="opacity:1" fill="#c43441" d="M 332.5,136.5 C 342.948,141.558 353.281,146.891 363.5,152.5C 363.267,154.062 362.6,155.395 361.5,156.5C 359.473,156.662 357.473,156.495 355.5,156C 346.436,150.475 337.436,144.975 328.5,139.5C 329.795,138.512 331.128,137.512 332.5,136.5 Z"/></g>
<g><path style="opacity:1" fill="#e23d4b" d="M 339.5,132.5 C 349.052,137.776 358.719,142.776 368.5,147.5C 367.167,149.5 365.5,151.167 363.5,152.5C 353.281,146.891 342.948,141.558 332.5,136.5C 334.336,134.412 336.669,133.079 339.5,132.5 Z"/></g>
<g><path style="opacity:1" fill="#e8e4f5" d="M 378.5,149.5 C 384.898,148.053 389.731,150.053 393,155.5C 396.395,172.983 391.561,187.816 378.5,200C 372.099,204.75 365.932,204.583 360,199.5C 354.064,178.369 360.231,161.702 378.5,149.5 Z"/></g>
<g><path style="opacity:0.997" fill="#956c7c" d="M 239.5,156.5 C 255.833,165.833 272.167,175.167 288.5,184.5C 288.063,186.074 287.063,187.241 285.5,188C 272.473,195.512 259.473,203.012 246.5,210.5C 228.721,200.561 211.055,190.394 193.5,180C 190.986,178.748 188.32,178.248 185.5,178.5C 199.103,170.359 212.77,162.193 226.5,154C 228.833,153.333 231.167,153.333 233.5,154C 235.407,155.122 237.407,155.955 239.5,156.5 Z"/></g>
<g><path style="opacity:1" fill="#f54453" d="M 326.5,178.5 C 323.692,174.923 320.026,172.59 315.5,171.5C 318.598,169.108 321.931,166.942 325.5,165C 330.45,164.142 334.117,165.975 336.5,170.5C 333.436,173.57 330.103,176.237 326.5,178.5 Z"/></g>
<g><path style="opacity:0.982" fill="#fa7783" d="M 312.5,171.5 C 313.5,171.5 314.5,171.5 315.5,171.5C 320.026,172.59 323.692,174.923 326.5,178.5C 331.82,186.347 332.82,194.68 329.5,203.5C 328.333,204.815 326.833,205.481 325,205.5C 322.863,204.923 320.696,204.59 318.5,204.5C 321.775,202.727 324.609,200.393 327,197.5C 327.667,194.5 327.667,191.5 327,188.5C 326.8,186.68 325.966,185.347 324.5,184.5C 324.573,182.973 323.906,181.973 322.5,181.5C 321.217,179.185 319.217,177.852 316.5,177.5C 313.594,178.418 310.928,179.751 308.5,181.5C 308.099,177.349 309.433,174.015 312.5,171.5 Z"/></g>
<g><path style="opacity:0.998" fill="#fe4757" d="M 400.5,174.5 C 406.065,178.915 409.899,184.582 412,191.5C 412.5,218.831 412.667,246.165 412.5,273.5C 398.145,281.096 383.978,289.096 370,297.5C 369.5,269.502 369.333,241.502 369.5,213.5C 372.258,212.623 374.924,211.456 377.5,210C 388.825,200.511 396.492,188.678 400.5,174.5 Z"/></g>
<g><path style="opacity:1" fill="#5e3746" d="M 185.5,178.5 C 188.32,178.248 190.986,178.748 193.5,180C 211.055,190.394 228.721,200.561 246.5,210.5C 249.765,212.584 252.932,214.917 256,217.5C 265.112,212.029 274.279,206.695 283.5,201.5C 283.642,206.778 285.642,211.112 289.5,214.5C 290.641,216.243 292.308,217.243 294.5,217.5C 297.511,216.147 300.511,214.814 303.5,213.5C 299.254,218.991 295.254,224.658 291.5,230.5C 281.312,236.506 270.979,242.339 260.5,248C 258.527,248.495 256.527,248.662 254.5,248.5C 239.661,239.913 224.661,231.58 209.5,223.5C 201.857,219.007 194.524,214.007 187.5,208.5C 183.206,203.244 180.54,197.244 179.5,190.5C 178.032,184.578 180.032,180.578 185.5,178.5 Z"/></g>
<g><path style="opacity:0.976" fill="#7560b8" d="M 322.5,181.5 C 315.621,185.278 308.621,189.112 301.5,193C 297.961,194.617 294.294,195.283 290.5,195C 289.748,194.329 289.414,193.496 289.5,192.5C 291.826,191.855 293.493,190.522 294.5,188.5C 299.167,186.167 303.833,183.833 308.5,181.5C 310.928,179.751 313.594,178.418 316.5,177.5C 319.217,177.852 321.217,179.185 322.5,181.5 Z"/></g>
<g><path style="opacity:1" fill="#45386b" d="M 324.5,184.5 C 325.966,185.347 326.8,186.68 327,188.5C 327.667,191.5 327.667,194.5 327,197.5C 324.609,200.393 321.775,202.727 318.5,204.5C 313.238,207.102 308.238,210.102 303.5,213.5C 300.511,214.814 297.511,216.147 294.5,217.5C 292.308,217.243 290.641,216.243 289.5,214.5C 292.777,214.784 295.943,214.451 299,213.5C 299.774,209.188 299.274,205.022 297.5,201C 298.319,199.681 299.319,198.515 300.5,197.5C 308.488,193.187 316.488,188.854 324.5,184.5 Z"/></g>
<g><path style="opacity:0.998" fill="#855c6c" d="M 288.5,184.5 C 290.5,185.833 292.5,187.167 294.5,188.5C 293.493,190.522 291.826,191.855 289.5,192.5C 285.264,193.963 283.264,196.963 283.5,201.5C 274.279,206.695 265.112,212.029 256,217.5C 252.932,214.917 249.765,212.584 246.5,210.5C 259.473,203.012 272.473,195.512 285.5,188C 287.063,187.241 288.063,186.074 288.5,184.5 Z"/></g>
<g><path style="opacity:0.993" fill="#c7bcea" d="M 116.5,184.5 C 119.691,185.092 122.691,186.259 125.5,188C 133.004,192.587 140.671,196.92 148.5,201C 151.146,201.497 153.813,201.664 156.5,201.5C 155.081,202.451 153.415,202.784 151.5,202.5C 151.5,210.833 151.5,219.167 151.5,227.5C 142.418,226.119 133.418,226.619 124.5,229C 115.582,232.126 107.249,236.292 99.5,241.5C 98.1667,242.167 96.8333,242.833 95.5,243.5C 89.6412,246.593 83.9745,249.926 78.5,253.5C 77.9318,222.952 90.5984,199.952 116.5,184.5 Z"/></g>
<g><path style="opacity:1" fill="#a794e7" d="M 179.5,190.5 C 180.54,197.244 183.206,203.244 187.5,208.5C 180.539,205.353 173.873,201.687 167.5,197.5C 171.465,195.182 175.465,192.848 179.5,190.5 Z"/></g>
<g><path style="opacity:1" fill="#cdc3e9" d="M 167.5,197.5 C 173.873,201.687 180.539,205.353 187.5,208.5C 194.524,214.007 201.857,219.007 209.5,223.5C 209.5,236.5 209.5,249.5 209.5,262.5C 207.538,258.936 204.871,255.936 201.5,253.5C 200.284,251.549 198.618,250.049 196.5,249C 188.5,244.333 180.5,239.667 172.5,235C 165.705,231.571 158.705,229.071 151.5,227.5C 151.5,219.167 151.5,210.833 151.5,202.5C 153.415,202.784 155.081,202.451 156.5,201.5C 160.458,200.929 164.124,199.595 167.5,197.5 Z"/></g>
<g><path style="opacity:1" fill="#fe4757" d="M 344.5,203.5 C 344.5,239.833 344.5,276.167 344.5,312.5C 323.139,324.512 301.806,336.512 280.5,348.5C 280.5,321.167 280.5,293.833 280.5,266.5C 281.763,253.716 285.429,241.716 291.5,230.5C 295.254,224.658 299.254,218.991 303.5,213.5C 308.238,210.102 313.238,207.102 318.5,204.5C 320.696,204.59 322.863,204.923 325,205.5C 326.833,205.481 328.333,204.815 329.5,203.5C 332.114,202.193 334.78,200.86 337.5,199.5C 339.85,200.861 342.184,202.194 344.5,203.5 Z"/></g>
<g><path style="opacity:1" fill="#a995e9" d="M 344.5,203.5 C 348.034,205.766 351.7,207.766 355.5,209.5C 356.83,259.264 356.83,308.931 355.5,358.5C 354.833,358.167 354.167,357.833 353.5,357.5C 350.291,355.735 347.291,353.735 344.5,351.5C 344.5,348.833 344.5,346.167 344.5,343.5C 344.5,340.833 344.5,338.167 344.5,335.5C 344.5,333.167 344.5,330.833 344.5,328.5C 344.5,325.833 344.5,323.167 344.5,320.5C 344.5,317.833 344.5,315.167 344.5,312.5C 344.5,276.167 344.5,239.833 344.5,203.5 Z"/></g>
<g><path style="opacity:1" fill="#5b4b91" d="M 322.5,181.5 C 323.906,181.973 324.573,182.973 324.5,184.5C 316.488,188.854 308.488,193.187 300.5,197.5C 299.319,198.515 298.319,199.681 297.5,201C 299.274,205.022 299.774,209.188 299,213.5C 295.943,214.451 292.777,214.784 289.5,214.5C 285.642,211.112 283.642,206.778 283.5,201.5C 283.264,196.963 285.264,193.963 289.5,192.5C 289.414,193.496 289.748,194.329 290.5,195C 294.294,195.283 297.961,194.617 301.5,193C 308.621,189.112 315.621,185.278 322.5,181.5 Z"/></g>
<g><path style="opacity:1" fill="#d1c9ea" d="M 209.5,223.5 C 224.661,231.58 239.661,239.913 254.5,248.5C 257.972,255.143 258.472,262.143 256,269.5C 253.359,277.455 249.192,284.455 243.5,290.5C 240.943,292.032 238.443,293.699 236,295.5C 235.5,304.16 235.334,312.827 235.5,321.5C 250.131,330.152 264.798,338.819 279.5,347.5C 279.828,359.345 279.495,371.012 278.5,382.5C 252.302,367.235 225.969,352.235 199.5,337.5C 196.039,334.931 192.372,332.597 188.5,330.5C 196.169,319.99 203.669,309.323 211,298.5C 214.259,290.586 215.092,282.586 213.5,274.5C 212.975,270.467 211.642,266.8 209.5,263.5C 209.5,263.167 209.5,262.833 209.5,262.5C 209.5,249.5 209.5,236.5 209.5,223.5 Z"/></g>
<g><path style="opacity:1" fill="#fe4858" d="M 151.5,227.5 C 158.705,229.071 165.705,231.571 172.5,235C 180.5,239.667 188.5,244.333 196.5,249C 198.618,250.049 200.284,251.549 201.5,253.5C 201.389,254.117 201.056,254.617 200.5,255C 191.6,257.267 182.766,259.767 174,262.5C 167.246,259.208 160.746,255.542 154.5,251.5C 148.342,247.422 141.676,244.422 134.5,242.5C 128.654,240.767 122.654,240.1 116.5,240.5C 111.022,240.149 105.689,240.816 100.5,242.5C 99.8933,242.376 99.56,242.043 99.5,241.5C 107.249,236.292 115.582,232.126 124.5,229C 133.418,226.619 142.418,226.119 151.5,227.5 Z"/></g>
<g><path style="opacity:1" fill="#a995e9" d="M 291.5,230.5 C 285.429,241.716 281.763,253.716 280.5,266.5C 279.566,267.568 279.232,268.901 279.5,270.5C 267.473,277.179 255.473,283.845 243.5,290.5C 249.192,284.455 253.359,277.455 256,269.5C 258.472,262.143 257.972,255.143 254.5,248.5C 256.527,248.662 258.527,248.495 260.5,248C 270.979,242.339 281.312,236.506 291.5,230.5 Z"/></g>
<g><path style="opacity:1" fill="#cdc4ea" d="M 357.5,210.5 C 360.668,213.056 364.334,214.056 368.5,213.5C 368.5,236.167 368.5,258.833 368.5,281.5C 364.833,281.5 361.167,281.5 357.5,281.5C 357.5,257.833 357.5,234.167 357.5,210.5 Z"/></g>
<g><path style="opacity:1" fill="#d53a47" d="M 116.5,240.5 C 122.654,240.1 128.654,240.767 134.5,242.5C 134.5,270.167 134.5,297.833 134.5,325.5C 129.368,323.1 124.368,320.434 119.5,317.5C 118.5,316.833 117.5,316.167 116.5,315.5C 116.5,290.5 116.5,265.5 116.5,240.5 Z"/></g>
<g><path style="opacity:0.999" fill="#c73542" d="M 116.5,240.5 C 116.5,265.5 116.5,290.5 116.5,315.5C 110.965,312.233 105.298,309.233 99.5,306.5C 98.2905,306.068 97.2905,305.401 96.5,304.5C 96.8209,284.091 96.4876,263.758 95.5,243.5C 96.8333,242.833 98.1667,242.167 99.5,241.5C 99.56,242.043 99.8933,242.376 100.5,242.5C 105.689,240.816 111.022,240.149 116.5,240.5 Z"/></g>
<g><path style="opacity:0.996" fill="#ba303c" d="M 95.5,243.5 C 96.4876,263.758 96.8209,284.091 96.5,304.5C 86.194,298.679 75.8606,292.845 65.5,287C 60.551,282.058 59.7177,276.558 63,270.5C 67.2945,264.039 72.4612,258.372 78.5,253.5C 83.9745,249.926 89.6412,246.593 95.5,243.5 Z"/></g>
<g><path style="opacity:1" fill="#e13d4b" d="M 134.5,242.5 C 141.676,244.422 148.342,247.422 154.5,251.5C 154.5,280.167 154.5,308.833 154.5,337.5C 153.167,336.833 151.833,336.167 150.5,335.5C 146.535,333.182 142.535,330.848 138.5,328.5C 137.128,327.488 135.795,326.488 134.5,325.5C 134.5,297.833 134.5,270.167 134.5,242.5 Z"/></g>
<g><path style="opacity:1" fill="#f04251" d="M 154.5,251.5 C 160.746,255.542 167.246,259.208 174,262.5C 182.766,259.767 191.6,257.267 200.5,255C 201.056,254.617 201.389,254.117 201.5,253.5C 204.871,255.936 207.538,258.936 209.5,262.5C 209.5,262.833 209.5,263.167 209.5,263.5C 209.586,264.496 209.252,265.329 208.5,266C 200.25,267.892 192.25,270.392 184.5,273.5C 189.428,281.468 191.428,290.135 190.5,299.5C 189.977,305.569 188.144,311.235 185,316.5C 178.201,324.786 172.034,333.453 166.5,342.5C 165.85,342.804 165.183,343.137 164.5,343.5C 161.139,341.489 157.806,339.489 154.5,337.5C 154.5,308.833 154.5,280.167 154.5,251.5 Z"/></g>
<g><path style="opacity:1" fill="#7662bd" d="M 279.5,270.5 C 279.5,279.167 279.5,287.833 279.5,296.5C 264.833,304.833 250.167,313.167 235.5,321.5C 235.334,312.827 235.5,304.16 236,295.5C 238.443,293.699 240.943,292.032 243.5,290.5C 255.473,283.845 267.473,277.179 279.5,270.5 Z"/></g>
<g><path style="opacity:1" fill="#cb3744" d="M 209.5,263.5 C 211.642,266.8 212.975,270.467 213.5,274.5C 213.5,277.833 213.5,281.167 213.5,284.5C 206.396,286.09 199.396,288.09 192.5,290.5C 191.833,293.642 191.166,296.642 190.5,299.5C 191.428,290.135 189.428,281.468 184.5,273.5C 192.25,270.392 200.25,267.892 208.5,266C 209.252,265.329 209.586,264.496 209.5,263.5 Z"/></g>
<g><path style="opacity:1" fill="#ef4352" d="M 368.5,213.5 C 368.833,213.5 369.167,213.5 369.5,213.5C 369.333,241.502 369.5,269.502 370,297.5C 383.978,289.096 398.145,281.096 412.5,273.5C 412.5,277.167 412.5,280.833 412.5,284.5C 398.527,292.488 384.527,300.488 370.5,308.5C 369.833,305.358 369.166,302.358 368.5,299.5C 368.5,293.5 368.5,287.5 368.5,281.5C 368.5,258.833 368.5,236.167 368.5,213.5 Z"/></g>
<g><path style="opacity:1" fill="#c8bce8" d="M 355.5,209.5 C 356.492,209.328 357.158,209.662 357.5,210.5C 357.5,234.167 357.5,257.833 357.5,281.5C 361.167,281.5 364.833,281.5 368.5,281.5C 368.5,287.5 368.5,293.5 368.5,299.5C 368.5,306.5 368.5,313.5 368.5,320.5C 368.5,330.5 368.5,340.5 368.5,350.5C 367.969,352.624 366.635,354.124 364.5,355C 361.671,356.247 359.005,357.747 356.5,359.5C 355.893,359.376 355.56,359.043 355.5,358.5C 356.83,308.931 356.83,259.264 355.5,209.5 Z"/></g>
<g><path style="opacity:1" fill="#ac2e39" d="M 213.5,274.5 C 215.092,282.586 214.259,290.586 211,298.5C 203.669,309.323 196.169,319.99 188.5,330.5C 182.702,333.233 177.035,336.233 171.5,339.5C 169.999,340.752 168.332,341.752 166.5,342.5C 172.034,333.453 178.201,324.786 185,316.5C 188.144,311.235 189.977,305.569 190.5,299.5C 191.166,296.642 191.833,293.642 192.5,290.5C 199.396,288.09 206.396,286.09 213.5,284.5C 213.5,281.167 213.5,277.833 213.5,274.5 Z"/></g>
<g><path style="opacity:1" fill="#d7678d" d="M 280.5,266.5 C 280.5,293.833 280.5,321.167 280.5,348.5C 280.5,351.167 280.5,353.833 280.5,356.5C 280.5,359.167 280.5,361.833 280.5,364.5C 280.5,367.167 280.5,369.833 280.5,372.5C 280.5,375.167 280.5,377.833 280.5,380.5C 280.5,381.5 280.5,382.5 280.5,383.5C 279.508,383.672 278.842,383.338 278.5,382.5C 279.495,371.012 279.828,359.345 279.5,347.5C 279.5,330.5 279.5,313.5 279.5,296.5C 279.5,287.833 279.5,279.167 279.5,270.5C 279.232,268.901 279.566,267.568 280.5,266.5 Z"/></g>
<g><path style="opacity:1" fill="#a895ea" d="M 279.5,296.5 C 279.5,313.5 279.5,330.5 279.5,347.5C 264.798,338.819 250.131,330.152 235.5,321.5C 250.167,313.167 264.833,304.833 279.5,296.5 Z"/></g>
<g><path style="opacity:1" fill="#d73a48" d="M 412.5,284.5 C 412.5,289.833 412.5,295.167 412.5,300.5C 398.167,308.5 383.833,316.5 369.5,324.5C 369.768,322.901 369.434,321.568 368.5,320.5C 368.5,313.5 368.5,306.5 368.5,299.5C 369.166,302.358 369.833,305.358 370.5,308.5C 384.527,300.488 398.527,292.488 412.5,284.5 Z"/></g>
<g><path style="opacity:1" fill="#be323e" d="M 412.5,300.5 C 412.5,305.833 412.5,311.167 412.5,316.5C 398.145,324.096 383.978,332.096 370,340.5C 369.501,335.177 369.334,329.844 369.5,324.5C 383.833,316.5 398.167,308.5 412.5,300.5 Z"/></g>
<g><path style="opacity:1" fill="#e6e0f2" d="M 119.5,317.5 C 124.368,320.434 129.368,323.1 134.5,325.5C 135.795,326.488 137.128,327.488 138.5,328.5C 141.259,332.882 145.259,335.215 150.5,335.5C 151.833,336.167 153.167,336.833 154.5,337.5C 157.806,339.489 161.139,341.489 164.5,343.5C 165.183,343.137 165.85,342.804 166.5,342.5C 168.332,341.752 169.999,340.752 171.5,339.5C 167.49,354.958 158.156,359.291 143.5,352.5C 131.631,343.607 123.631,331.94 119.5,317.5 Z"/></g>
<g><path style="opacity:1" fill="#f24252" d="M 344.5,312.5 C 344.5,315.167 344.5,317.833 344.5,320.5C 322.928,332.072 301.594,344.072 280.5,356.5C 280.5,353.833 280.5,351.167 280.5,348.5C 301.806,336.512 323.139,324.512 344.5,312.5 Z"/></g>
<g><path style="opacity:0.979" fill="#ad2d38" d="M 412.5,316.5 C 412.619,323.644 410.452,329.977 406,335.5C 398.693,340.896 391.193,345.896 383.5,350.5C 378.5,350.5 373.5,350.5 368.5,350.5C 368.5,340.5 368.5,330.5 368.5,320.5C 369.434,321.568 369.768,322.901 369.5,324.5C 369.334,329.844 369.501,335.177 370,340.5C 383.978,332.096 398.145,324.096 412.5,316.5 Z"/></g>
<g><path style="opacity:1" fill="#e53e4d" d="M 344.5,320.5 C 344.5,323.167 344.5,325.833 344.5,328.5C 323.167,340.5 301.833,352.5 280.5,364.5C 280.5,361.833 280.5,359.167 280.5,356.5C 301.594,344.072 322.928,332.072 344.5,320.5 Z"/></g>
<g><path style="opacity:1" fill="#8566b8" d="M 138.5,328.5 C 142.535,330.848 146.535,333.182 150.5,335.5C 145.259,335.215 141.259,332.882 138.5,328.5 Z"/></g>
<g><path style="opacity:1" fill="#d93a48" d="M 344.5,328.5 C 344.5,330.833 344.5,333.167 344.5,335.5C 323.167,347.833 301.833,360.167 280.5,372.5C 280.5,369.833 280.5,367.167 280.5,364.5C 301.833,352.5 323.167,340.5 344.5,328.5 Z"/></g>
<g><path style="opacity:0.979" fill="#57498b" d="M 99.5,306.5 C 105.298,309.233 110.965,312.233 116.5,315.5C 117.5,316.167 118.5,316.833 119.5,317.5C 123.631,331.94 131.631,343.607 143.5,352.5C 135.648,352.175 127.982,352.508 120.5,353.5C 110.002,339.495 103.002,323.829 99.5,306.5 Z"/></g>
<g><path style="opacity:0.992" fill="#ac2c37" d="M 199.5,337.5 C 225.969,352.235 252.302,367.235 278.5,382.5C 278.842,383.338 279.508,383.672 280.5,383.5C 280.238,384.978 280.571,386.311 281.5,387.5C 302.517,375.472 323.517,363.472 344.5,351.5C 347.291,353.735 350.291,355.735 353.5,357.5C 347.663,360.918 341.996,364.584 336.5,368.5C 326.522,372.478 319.522,379.478 315.5,389.5C 299.725,398.224 284.058,407.224 268.5,416.5C 241.806,401.155 215.139,385.822 188.5,370.5C 180.242,361.304 180.575,352.47 189.5,344C 193.069,342.058 196.402,339.892 199.5,337.5 Z"/></g>
<g><path style="opacity:1" fill="#cc3643" d="M 344.5,335.5 C 344.5,338.167 344.5,340.833 344.5,343.5C 323.167,355.833 301.833,368.167 280.5,380.5C 280.5,377.833 280.5,375.167 280.5,372.5C 301.833,360.167 323.167,347.833 344.5,335.5 Z"/></g>
<g><path style="opacity:1" fill="#c0323f" d="M 344.5,343.5 C 344.5,346.167 344.5,348.833 344.5,351.5C 323.517,363.472 302.517,375.472 281.5,387.5C 280.571,386.311 280.238,384.978 280.5,383.5C 280.5,382.5 280.5,381.5 280.5,380.5C 301.833,368.167 323.167,355.833 344.5,343.5 Z"/></g>
<g><path style="opacity:0.99" fill="#d5cfea" d="M 368.5,350.5 C 373.5,350.5 378.5,350.5 383.5,350.5C 404.187,358.852 419.854,372.852 430.5,392.5C 420.613,398.944 410.279,404.611 399.5,409.5C 388.888,390.685 373.554,377.185 353.5,369C 347.843,368.501 342.176,368.334 336.5,368.5C 341.996,364.584 347.663,360.918 353.5,357.5C 354.167,357.833 354.833,358.167 355.5,358.5C 355.56,359.043 355.893,359.376 356.5,359.5C 359.005,357.747 361.671,356.247 364.5,355C 366.635,354.124 367.969,352.624 368.5,350.5 Z"/></g>
<g><path style="opacity:0.993" fill="#4f427d" d="M 188.5,330.5 C 192.372,332.597 196.039,334.931 199.5,337.5C 196.402,339.892 193.069,342.058 189.5,344C 180.575,352.47 180.242,361.304 188.5,370.5C 182.189,373.656 175.855,376.822 169.5,380C 157.649,382.275 146.982,379.609 137.5,372C 130.578,366.915 124.912,360.748 120.5,353.5C 127.982,352.508 135.648,352.175 143.5,352.5C 158.156,359.291 167.49,354.958 171.5,339.5C 177.035,336.233 182.702,333.233 188.5,330.5 Z"/></g>
<g><path style="opacity:0.999" fill="#a996ea" d="M 336.5,368.5 C 342.176,368.334 347.843,368.501 353.5,369C 373.554,377.185 388.888,390.685 399.5,409.5C 403.692,416.55 407.358,423.883 410.5,431.5C 415.197,441.287 417.864,451.621 418.5,462.5C 416.716,462.107 415.05,461.441 413.5,460.5C 408.147,457.067 402.647,453.733 397,450.5C 396.601,450.728 396.435,451.062 396.5,451.5C 391.884,447.183 386.551,443.85 380.5,441.5C 372.801,436.317 364.801,431.65 356.5,427.5C 351.167,427.5 345.833,427.5 340.5,427.5C 334.833,427.5 329.167,427.5 323.5,427.5C 319.5,427.5 315.5,427.5 311.5,427.5C 311.334,419.16 311.5,410.827 312,402.5C 312.464,397.946 313.631,393.613 315.5,389.5C 319.522,379.478 326.522,372.478 336.5,368.5 Z"/></g>
<g><path style="opacity:0.988" fill="#cac0eb" d="M 430.5,392.5 C 434.868,398.57 438.202,405.236 440.5,412.5C 440.719,413.675 440.386,414.675 439.5,415.5C 429.94,421.112 420.273,426.445 410.5,431.5C 407.358,423.883 403.692,416.55 399.5,409.5C 410.279,404.611 420.613,398.944 430.5,392.5 Z"/></g>
<g><path style="opacity:0.987" fill="#c4b9ea" d="M 440.5,412.5 C 445.291,423.148 448.624,434.315 450.5,446C 446.806,448.178 443.139,450.345 439.5,452.5C 432.567,455.634 425.9,459.301 419.5,463.5C 418.893,463.376 418.56,463.043 418.5,462.5C 417.864,451.621 415.197,441.287 410.5,431.5C 420.273,426.445 429.94,421.112 439.5,415.5C 440.386,414.675 440.719,413.675 440.5,412.5 Z"/></g>
<g><path style="opacity:1" fill="#e6e2f4" d="M 340.5,427.5 C 345.833,427.5 351.167,427.5 356.5,427.5C 352.155,442.631 356.155,455.131 368.5,465C 378.276,467.741 382.943,463.907 382.5,453.5C 382.467,449.376 381.801,445.376 380.5,441.5C 386.551,443.85 391.884,447.183 396.5,451.5C 396.666,457.842 396.5,464.175 396,470.5C 393.018,483.401 385.184,488.234 372.5,485C 364.955,481.239 358.622,476.073 353.5,469.5C 345.164,456.82 340.831,442.82 340.5,427.5 Z"/></g>
<g><path style="opacity:1" fill="#7763bd" d="M 356.5,427.5 C 364.801,431.65 372.801,436.317 380.5,441.5C 381.801,445.376 382.467,449.376 382.5,453.5C 382.943,463.907 378.276,467.741 368.5,465C 356.155,455.131 352.155,442.631 356.5,427.5 Z"/></g>
<g><path style="opacity:0.988" fill="#43386b" d="M 439.5,452.5 C 440.316,464.625 437.816,475.958 432,486.5C 423.038,494.955 412.871,501.621 401.5,506.5C 406.781,501.613 410.281,495.613 412,488.5C 413.276,479.212 413.776,469.879 413.5,460.5C 415.05,461.441 416.716,462.107 418.5,462.5C 418.56,463.043 418.893,463.376 419.5,463.5C 425.9,459.301 432.567,455.634 439.5,452.5 Z"/></g>
<g><path style="opacity:0.978" fill="#5c4d92" d="M 323.5,427.5 C 329.167,427.5 334.833,427.5 340.5,427.5C 340.831,442.82 345.164,456.82 353.5,469.5C 347.642,469.178 341.975,469.511 336.5,470.5C 328.765,457.286 324.431,442.953 323.5,427.5 Z"/></g>
<g><path style="opacity:0.995" fill="#504381" d="M 413.5,460.5 C 413.776,469.879 413.276,479.212 412,488.5C 410.281,495.613 406.781,501.613 401.5,506.5C 399.137,508.68 396.47,510.347 393.5,511.5C 388.5,511.5 383.5,511.5 378.5,511.5C 359.282,503.283 345.282,489.617 336.5,470.5C 341.975,469.511 347.642,469.178 353.5,469.5C 358.622,476.073 364.955,481.239 372.5,485C 385.184,488.234 393.018,483.401 396,470.5C 396.5,464.175 396.666,457.842 396.5,451.5C 396.435,451.062 396.601,450.728 397,450.5C 402.647,453.733 408.147,457.067 413.5,460.5 Z"/></g>
</svg>
