<svg xmlns="http://www.w3.org/2000/svg" fill="none" height="32" viewBox="0 0 32 32" width="32">
    <path d="m16 32c8.8366 0 16-7.1634 16-16 0-8.83656-7.1634-16-16-16-8.83656 0-16 7.16344-16 16 0 8.8366 7.16344 16 16 16z" fill="#2daae1"/>
    <path d="m26.259 9.63547c-.7547.33489-1.5653.56133-2.4175.66303.8698-.52085 1.5361-1.34622 1.8507-2.32855-.8124.48239-1.7133.83276-2.6734 1.02145-.7674-.81798-1.8618-1.32868-3.0724-1.32868-2.3239 0-4.2085 1.88387-4.2085 4.20908 0 .3294.0371.6508.1085.9594-3.4983-.1758-6.59965-1.8515-8.67558-4.39766-.36249.62186-.56997 1.34487-.56997 2.11626 0 1.4601.74317 2.7484 1.87241 3.503-.68993-.0215-1.33884-.2109-1.9068-.5262v.0532c0 2.0395 1.45065 3.7401 3.3763 4.1269-.35374.0969-.72497.1476-1.10903.1476-.27153 0-.53498-.0257-.79234-.0741.53564 1.6716 2.09011 2.8884 3.93141 2.9228-1.4405 1.1293-3.25566 1.8024-5.22711 1.8024-.33956 0-.67515-.0203-1.0046-.06 1.86301 1.1946 4.07503 1.892 6.45211 1.892 7.7417 0 11.9757-6.4137 11.9757-11.9757 0-.1826-.004-.3639-.0128-.5445.8246-.5963 1.5389-1.3374 2.1029-2.18173z" fill="#fff"/>
</svg>