<svg xmlns="http://www.w3.org/2000/svg"
    xmlns:xlink="http://www.w3.org/1999/xlink" fill="none" height="32" viewBox="0 0 32 32" width="32">
    <linearGradient id="a">
        <stop offset="0" stop-color="#f9f9f9"/>
        <stop offset="1" stop-color="#fff"/>
    </linearGradient>
    <linearGradient id="b" gradientUnits="userSpaceOnUse" x1="15.9286" x2="15.9286" xlink:href="#a" y1="32" y2="-.000069"/>
    <linearGradient id="c" gradientUnits="userSpaceOnUse" x1="15.9286" x2="15.9286" y1="31.4463" y2=".554015">
        <stop offset="0" stop-color="#20b038"/>
        <stop offset="1" stop-color="#60d66a"/>
    </linearGradient>
    <linearGradient id="d" gradientUnits="userSpaceOnUse" x1="15.9296" x2="15.9296" xlink:href="#a" y1="32" y2="-.000069"/>
    <clipPath id="e">
        <path d="m0 0h32v32h-32z"/>
    </clipPath>
    <g clip-path="url(#e)">
        <path d="m.133174 15.8559c-.000948 2.7948.729183 5.5227 2.117176 7.9275l-2.25035 8.2166 8.40866-2.2048c2.31684 1.2634 4.92534 1.9292 7.57984 1.9302h.0068c8.7419 0 15.8581-7.1142 15.8619-15.8567.0015-4.2372-1.647-8.22126-4.6416-11.2185-2.995-2.99702-6.9773-4.64840709-11.2203-4.65019809-8.74337 0-15.858649 7.11295809-15.862126 15.85589809zm5.007476 7.5134-.31376-.4985c-1.31993-2.0985-2.01677-4.5237-2.01571-7.0138.00295-7.26692 5.91682-13.17879 13.18912-13.17879 3.5216.00148 6.8314 1.37408 9.3207 3.86518 2.4892 2.49099 3.859 5.80251 3.858 9.32431-.0031 7.267-5.9173 13.1796-13.1837 13.1796h-.0052c-2.3661-.0011-4.6864-.6364-6.71023-1.8373l-.4816-.2855-4.98988 1.3082zm10.85465 8.3561h.0001s0 0-.0001 0zm0 0c-.0001 0-.0004 0 0 0z" fill="url(#b)"/>
        <path d="m.67998 15.8611c-.000843 2.6975.704 5.3312 2.04427 7.6528l-2.172492 7.9324 8.117562-2.1285c2.23658 1.2189 4.75448 1.8622 7.31728 1.863h.0067c8.4391 0 15.3087-6.8673 15.3122-15.3078.0017-4.0903-1.5897-7.93616-4.481-10.82952-2.8907-2.89335-6.7354-4.487635-10.8318-4.489533-8.44008 0-15.309243 6.866843-15.31272 15.307153zm15.31332 15.3197h.0001s0 0-.0001 0zm0 0c-.0001 0-.0004 0 0 0z" fill="url(#c)"/>
        <path clip-rule="evenodd" d="m12.0309 9.22728c-.2969-.66007-.6094-.67324-.8918-.68483-.2311-.0099-.4955-.00927-.7596-.00927-.2642 0-.69365.09935-1.05682.49592-.36328.39657-1.38726 1.3553-1.38726 3.3052 0 1.9502 1.42034 3.8344 1.61831 4.0991.19818.2642 2.74187 4.3936 6.77037 5.9823 3.3479 1.3202 4.0292 1.0576 4.756.9916.7266-.0661 2.3448-.9586 2.6751-1.8841.3303-.9253.3303-1.7185.2312-1.8843-.0991-.1651-.3633-.2642-.7598-.4624-.3963-.1982-2.3447-1.1572-2.7081-1.2893s-.6276-.1982-.8919.1986c-.2642.3964-1.0234 1.2889-1.2546 1.5531-.2312.2649-.4624.298-.8589.0998-.3963-.1988-1.6727-.6169-3.1871-1.9671-1.1782-1.0504-1.9736-2.3478-2.2049-2.7445-.2312-.3964-.0248-.6111.1741-.8087.1779-.1775.3963-.4626.5945-.6941.1979-.2315.2639-.3965.396-.6608.1322-.2647.0661-.4961-.033-.6943s-.8694-2.1583-1.2218-2.94192z" fill="#fff" fill-rule="evenodd"/>
        <path d="m.13415 15.8559c-.000948 2.7948.729183 5.5227 2.11718 7.9275l-2.25035344 8.2166 8.40865344-2.2048c2.31687 1.2634 4.92527 1.9292 7.57977 1.9302h.0069c8.7419 0 15.8581-7.1142 15.8619-15.8567.0015-4.2372-1.6471-8.22126-4.6417-11.2185-2.9949-2.99702-6.9772-4.64840709-11.2202-4.65019809-8.7434 0-15.858673 7.11295809-15.86215 15.85589809zm5.00747 7.5134-.31376-.4985c-1.31992-2.0985-2.01676-4.5237-2.01571-7.0138.00295-7.26692 5.91682-13.17879 13.18905-13.17879 3.5216.00148 6.8315 1.37408 9.3208 3.86518 2.4892 2.49099 3.859 5.80251 3.858 9.32431-.0032 7.267-5.9173 13.1796-13.1837 13.1796h-.0052c-2.3661-.0011-4.6864-.6364-6.71026-1.8373l-.48159-.2855-4.98988 1.3082zm10.85468 8.3561h.0001s0 0-.0001 0zm0 0c-.0001 0 0 0 0 0z" fill="url(#d)"/>
    </g>
</svg>