<svg xmlns="http://www.w3.org/2000/svg" viewBox="0 0 750 500">
    <g id="freepik--Boat--inject-97">
        <rect x="245.06" y="343.31" width="45.52" height="12.2" style="fill:#fff;stroke:#263238;stroke-miterlimit:10"/>
        <rect x="259.33" y="343.31" width="31.24" height="12.2" style="fill:#fff;stroke:#263238;stroke-miterlimit:10"/>
        <rect x="245.06" y="331.41" width="45.52" height="12.2" style="fill:#fff;stroke:#263238;stroke-miterlimit:10"/>
        <rect x="259.33" y="331.41" width="31.24" height="12.2" style="fill:#fff;stroke:#263238;stroke-miterlimit:10"/>
        <rect x="245.06" y="319.51" width="45.52" height="12.2" style="fill:#fff;stroke:#263238;stroke-miterlimit:10"/>
        <rect x="259.33" y="319.51" width="31.24" height="12.2" style="fill:#fff;stroke:#263238;stroke-miterlimit:10"/>
        <rect x="262.01" y="343.31" width="45.52" height="12.2" style="fill:#fff;stroke:#263238;stroke-miterlimit:10"/>
        <rect x="276.29" y="343.31" width="31.24" height="12.2" style="fill:#fff;stroke:#263238;stroke-miterlimit:10"/>
        <rect x="262.01" y="331.41" width="45.52" height="12.2" style="fill:#fff;stroke:#263238;stroke-miterlimit:10"/>
        <rect x="276.29" y="331.41" width="31.24" height="12.2" style="fill:#fff;stroke:#263238;stroke-miterlimit:10"/>
        <rect x="262.01" y="319.51" width="45.52" height="12.2" style="fill:#fff;stroke:#263238;stroke-miterlimit:10"/>
        <rect x="276.29" y="319.51" width="31.24" height="12.2" style="fill:#fff;stroke:#263238;stroke-miterlimit:10"/>
        <rect x="278.97" y="343.31" width="45.52" height="12.2" style="fill:#8c8c8c;stroke:#263238;stroke-miterlimit:10"/>
        <rect x="293.25" y="343.31" width="31.24" height="12.2" style="fill:#8c8c8c;stroke:#263238;stroke-miterlimit:10"/>
        <rect x="278.97" y="331.41" width="45.52" height="12.2" style="fill:#fff;stroke:#263238;stroke-miterlimit:10"/>
        <rect x="293.25" y="331.41" width="31.24" height="12.2" style="fill:#fff;stroke:#263238;stroke-miterlimit:10"/>
        <rect x="278.97" y="319.51" width="45.52" height="12.2" style="fill:#F2F6FA;stroke:#263238;stroke-miterlimit:10"/>
        <rect x="293.25" y="319.51" width="31.24" height="12.2" style="fill:#F2F6FA;stroke:#263238;stroke-miterlimit:10"/>
        <rect x="261.78" y="278.15" width="1.72" height="20.34" style="fill:#fff;stroke:#263238;stroke-miterlimit:10"/>
        <rect x="260.25" y="292.17" width="4.78" height="8.99" style="fill:#fff;stroke:#263238;stroke-miterlimit:10"/>
        <polygon points="230.83 310.95 244.34 312.8 244.34 305.47 230.83 305.47 230.83 310.95" style="fill:#fff;stroke:#263238;stroke-miterlimit:10"/>
        <rect x="244.34" y="300.21" width="39.83" height="5.26" style="fill:#fff;stroke:#263238;stroke-miterlimit:10"/>
        <rect x="275.45" y="300.21" width="8.72" height="5.26" style="fill:#fff;stroke:#263238;stroke-miterlimit:10"/>
        <rect x="240.26" y="305.47" width="41.3" height="52.11" style="fill:#fff;stroke:#263238;stroke-miterlimit:10"/>
        <rect x="277.32" y="305.47" width="10.38" height="52.11" style="fill:#fff;stroke:#263238;stroke-miterlimit:10"/>
        <polygon points="295.07 310.95 281.56 312.8 281.56 305.47 295.07 305.47 295.07 310.95" style="fill:#fff;stroke:#263238;stroke-miterlimit:10"/>
        <rect x="295.07" y="305.47" width="3.35" height="5.69" style="fill:#fff;stroke:#263238;stroke-miterlimit:10"/>
        <polygon points="298.42 311.16 288.54 313.01 281.56 313.01 295.07 311.16 298.42 311.16" style="fill:#fff;stroke:#263238;stroke-miterlimit:10"/>
        <rect x="242.26" y="309.4" width="2.09" height="3.41" style="fill:#263238"/>
        <rect x="245.72" y="309.4" width="2.09" height="3.41" style="fill:#263238"/>
        <rect x="254.59" y="309.4" width="2.09" height="3.41" style="fill:#263238"/>
        <rect x="258.05" y="309.4" width="2.09" height="3.41" style="fill:#263238"/>
        <rect x="266.92" y="309.4" width="2.09" height="3.41" style="fill:#263238"/>
        <rect x="270.39" y="309.4" width="2.09" height="3.41" style="fill:#263238"/>
        <rect x="242.26" y="319.92" width="2.09" height="3.41" style="fill:#263238"/>
        <rect x="245.72" y="319.92" width="2.09" height="3.41" style="fill:#263238"/>
        <rect x="254.59" y="319.92" width="2.09" height="3.41" style="fill:#263238"/>
        <rect x="258.05" y="319.92" width="2.09" height="3.41" style="fill:#263238"/>
        <rect x="266.92" y="319.92" width="2.09" height="3.41" style="fill:#263238"/>
        <rect x="270.39" y="319.92" width="2.09" height="3.41" style="fill:#263238"/>
        <rect x="242.26" y="330.45" width="2.09" height="3.41" style="fill:#263238"/>
        <rect x="245.72" y="330.45" width="2.09" height="3.41" style="fill:#263238"/>
        <rect x="254.59" y="330.45" width="2.09" height="3.41" style="fill:#263238"/>
        <rect x="258.05" y="330.45" width="2.09" height="3.41" style="fill:#263238"/>
        <rect x="266.92" y="330.45" width="2.09" height="3.41" style="fill:#263238"/>
        <rect x="270.39" y="330.45" width="2.09" height="3.41" style="fill:#263238"/>
        <rect x="242.26" y="340.98" width="2.09" height="3.41" style="fill:#263238"/>
        <rect x="245.72" y="340.98" width="2.09" height="3.41" style="fill:#263238"/>
        <rect x="254.59" y="340.98" width="2.09" height="3.41" style="fill:#263238"/>
        <rect x="258.05" y="340.98" width="2.09" height="3.41" style="fill:#263238"/>
        <rect x="266.92" y="340.98" width="2.09" height="3.41" style="fill:#263238"/>
        <rect x="270.39" y="340.98" width="2.09" height="3.41" style="fill:#263238"/>
        <rect x="246.27" y="302.12" width="4.4" height="2.87" style="fill:#263238"/>
        <rect x="251.92" y="302.12" width="4.4" height="2.87" style="fill:#263238"/>
        <rect x="257.57" y="302.12" width="4.4" height="2.87" style="fill:#263238"/>
        <rect x="263.21" y="302.12" width="4.4" height="2.87" style="fill:#263238"/>
        <rect x="268.86" y="302.12" width="4.4" height="2.87" style="fill:#263238"/>
        <rect x="176.25" y="343.31" width="45.52" height="12.2" style="fill:#fff;stroke:#263238;stroke-miterlimit:10"/>
        <rect x="190.52" y="343.31" width="31.24" height="12.2" style="fill:#fff;stroke:#263238;stroke-miterlimit:10"/>
        <rect x="176.25" y="331.41" width="45.52" height="12.2" style="fill:#fff;stroke:#263238;stroke-miterlimit:10"/>
        <rect x="190.52" y="331.41" width="31.24" height="12.2" style="fill:#fff;stroke:#263238;stroke-miterlimit:10"/>
        <rect x="176.25" y="319.51" width="45.52" height="12.2" style="fill:#fff;stroke:#263238;stroke-miterlimit:10"/>
        <rect x="190.52" y="319.51" width="31.24" height="12.2" style="fill:#fff;stroke:#263238;stroke-miterlimit:10"/>
        <rect x="193.2" y="343.31" width="45.52" height="12.2" style="fill:#fff;stroke:#263238;stroke-miterlimit:10"/>
        <rect x="207.48" y="343.31" width="31.24" height="12.2" style="fill:#8c8c8c;stroke:#263238;stroke-miterlimit:10"/>
        <rect x="193.2" y="331.41" width="45.52" height="12.2" style="fill:#fff;stroke:#263238;stroke-miterlimit:10"/>
        <rect x="207.48" y="331.41" width="31.24" height="12.2" style="fill:#fff;stroke:#263238;stroke-miterlimit:10"/>
        <rect x="193.2" y="319.51" width="45.52" height="12.2" style="fill:#fff;stroke:#263238;stroke-miterlimit:10"/>
        <rect x="207.48" y="319.51" width="31.24" height="12.2" style="fill:#8c8c8c;stroke:#263238;stroke-miterlimit:10"/>
        <rect x="210.16" y="343.31" width="45.52" height="12.2" style="fill:#fff;stroke:#263238;stroke-miterlimit:10"/>
        <rect x="224.44" y="343.31" width="31.24" height="12.2" style="fill:#fff;stroke:#263238;stroke-miterlimit:10"/>
        <rect x="210.16" y="331.41" width="45.52" height="12.2" style="fill:#c2c2c2;stroke:#263238;stroke-miterlimit:10"/>
        <rect x="224.44" y="331.41" width="31.24" height="12.2" style="fill:#c2c2c2;stroke:#263238;stroke-miterlimit:10"/>
        <rect x="210.16" y="319.51" width="45.52" height="12.2" style="fill:#8c8c8c;stroke:#263238;stroke-miterlimit:10"/>
        <rect x="224.44" y="319.51" width="31.24" height="12.2" style="fill:#8c8c8c;stroke:#263238;stroke-miterlimit:10"/>
        <rect x="82.82" y="343.31" width="45.52" height="12.2" style="fill:#fff;stroke:#263238;stroke-miterlimit:10"/>
        <rect x="97.09" y="343.31" width="31.24" height="12.2" style="fill:#fff;stroke:#263238;stroke-miterlimit:10"/>
        <rect x="82.82" y="331.41" width="45.52" height="12.2" style="fill:#fff;stroke:#263238;stroke-miterlimit:10"/>
        <rect x="97.09" y="331.41" width="31.24" height="12.2" style="fill:#fff;stroke:#263238;stroke-miterlimit:10"/>
        <rect x="82.82" y="319.51" width="45.52" height="12.2" style="fill:#F2F6FA;stroke:#263238;stroke-miterlimit:10"/>
        <rect x="97.09" y="319.51" width="31.24" height="12.2" style="fill:#F2F6FA;stroke:#263238;stroke-miterlimit:10"/>
        <rect x="122.2" y="343.31" width="45.52" height="12.2" style="fill:#fff;stroke:#263238;stroke-miterlimit:10"/>
        <rect x="136.48" y="343.31" width="31.24" height="12.2" style="fill:#fff;stroke:#263238;stroke-miterlimit:10"/>
        <rect x="122.2" y="331.41" width="45.52" height="12.2" style="fill:#fff;stroke:#263238;stroke-miterlimit:10"/>
        <rect x="136.48" y="331.41" width="31.24" height="12.2" style="fill:#fff;stroke:#263238;stroke-miterlimit:10"/>
        <rect x="122.2" y="319.51" width="45.52" height="12.2" style="fill:#fff;stroke:#263238;stroke-miterlimit:10"/>
        <rect x="136.48" y="319.51" width="31.24" height="12.2" style="fill:#fff;stroke:#263238;stroke-miterlimit:10"/>
        <rect x="139.16" y="343.31" width="45.52" height="12.2" style="fill:#fff;stroke:#263238;stroke-miterlimit:10"/>
        <rect x="153.44" y="343.31" width="31.24" height="12.2" style="fill:#fff;stroke:#263238;stroke-miterlimit:10"/>
        <rect x="139.16" y="331.41" width="45.52" height="12.2" style="fill:#fff;stroke:#263238;stroke-miterlimit:10"/>
        <rect x="153.44" y="331.41" width="31.24" height="12.2" style="fill:#fff;stroke:#263238;stroke-miterlimit:10"/>
        <rect x="139.16" y="319.51" width="45.52" height="12.2" style="fill:#fff;stroke:#263238;stroke-miterlimit:10"/>
        <rect x="153.44" y="319.51" width="31.24" height="12.2" style="fill:#fff;stroke:#263238;stroke-miterlimit:10"/>
        <rect x="156.12" y="343.31" width="45.52" height="12.2" style="fill:#F2F6FA;stroke:#263238;stroke-miterlimit:10"/>
        <rect x="170.4" y="343.31" width="31.24" height="12.2" style="fill:#F2F6FA;stroke:#263238;stroke-miterlimit:10"/>
        <rect x="156.12" y="331.41" width="45.52" height="12.2" style="fill:#fff;stroke:#263238;stroke-miterlimit:10"/>
        <rect x="170.4" y="331.41" width="31.24" height="12.2" style="fill:#fff;stroke:#263238;stroke-miterlimit:10"/>
        <rect x="156.12" y="319.51" width="45.52" height="12.2" style="fill:#F2F6FA;stroke:#263238;stroke-miterlimit:10"/>
        <rect x="170.4" y="319.51" width="31.24" height="12.2" style="fill:#F2F6FA;stroke:#263238;stroke-miterlimit:10"/>
        <rect x="99.78" y="343.31" width="45.52" height="12.2" style="fill:#fff;stroke:#263238;stroke-miterlimit:10"/>
        <rect x="114.05" y="343.31" width="31.24" height="12.2" style="fill:#fff;stroke:#263238;stroke-miterlimit:10"/>
        <rect x="99.78" y="331.41" width="45.52" height="12.2" style="fill:#fff;stroke:#263238;stroke-miterlimit:10"/>
        <rect x="114.05" y="331.41" width="31.24" height="12.2" style="fill:#fff;stroke:#263238;stroke-miterlimit:10"/>
        <rect x="99.78" y="319.51" width="45.52" height="12.2" style="fill:#F2F6FA;stroke:#263238;stroke-miterlimit:10"/>
        <rect x="114.05" y="319.51" width="31.24" height="12.2" style="fill:#F2F6FA;stroke:#263238;stroke-miterlimit:10"/>
        <rect x="116.74" y="343.31" width="45.52" height="12.2" style="fill:#fff;stroke:#263238;stroke-miterlimit:10"/>
        <rect x="131.01" y="343.31" width="31.24" height="12.2" style="fill:#fff;stroke:#263238;stroke-miterlimit:10"/>
        <rect x="116.74" y="331.41" width="45.52" height="12.2" style="fill:#fff;stroke:#263238;stroke-miterlimit:10"/>
        <rect x="131.01" y="331.41" width="31.24" height="12.2" style="fill:#c2c2c2;stroke:#263238;stroke-miterlimit:10"/>
        <rect x="116.74" y="319.51" width="45.52" height="12.2" style="fill:#fff;stroke:#263238;stroke-miterlimit:10"/>
        <rect x="131.01" y="319.51" width="31.24" height="12.2" style="fill:#fff;stroke:#263238;stroke-miterlimit:10"/>
        <path d="M139.64,346.28V333.19s1.49-.89,2.38,1.79,4.61,14.43,4.61,14.43Z" style="fill:#fff;stroke:#263238;stroke-miterlimit:10"/>
        <rect x="79.84" y="333.21" width="59.8" height="12.18" style="fill:#fff;stroke:#263238;stroke-miterlimit:10"/>
        <path d="M330.44,354.13H156.08l-9.6-8.79H72.9l20.39,30.39s1.6,4.8-3.19,6c-1.74.43-3.48.76-5,1a5.46,5.46,0,0,0-4.61,5.39H299.41S326,384.93,330.44,354.13Z" style="fill:#263238;stroke:#263238;stroke-miterlimit:10"/>
        <path d="M92.59,380.31a4.69,4.69,0,0,1-2.49,1.42c-1.74.43-3.48.76-5,1a5.46,5.46,0,0,0-4.61,5.39H299.41a37.14,37.14,0,0,0,17.11-7.82Z" style="fill:#fff;stroke:#263238;stroke-miterlimit:10"/>
    </g>
    <g id="freepik--Port--inject-97">
        <rect x="456.46" y="238.48" width="6.71" height="139.45" style="fill:#263238;stroke:#263238;stroke-miterlimit:10"/>
        <rect x="432.36" y="338.17" width="51.74" height="7.66" style="fill:#263238;stroke:#263238;stroke-miterlimit:10"/>
        <rect x="411.28" y="238.48" width="6.71" height="139.45" style="fill:#263238;stroke:#263238;stroke-miterlimit:10"/>
        <rect x="442.17" y="238.48" width="6.71" height="139.45" style="fill:#263238;stroke:#263238;stroke-miterlimit:10"/>
        <rect x="256.19" y="377.88" width="445.71" height="10.24" style="fill:#c2c2c2;stroke:#263238;stroke-miterlimit:10"/>
        <rect x="423.85" y="377.88" width="278.04" height="10.24" style="fill:#263238;stroke:#263238;stroke-miterlimit:10"/>
        <rect x="330.8" y="222.67" width="32.58" height="11.98" style="fill:#fff;stroke:#263238;stroke-miterlimit:10"/>
        <rect x="349" y="222.67" width="14.37" height="11.98" style="fill:#fff;stroke:#263238;stroke-miterlimit:10"/>
        <rect x="380.14" y="222.67" width="32.58" height="11.98" style="fill:#fff;stroke:#263238;stroke-miterlimit:10"/>
        <rect x="398.34" y="222.67" width="14.37" height="11.98" style="fill:#fff;stroke:#263238;stroke-miterlimit:10"/>
        <rect x="389.24" y="338.17" width="51.74" height="7.66" style="fill:#F2F6FA;stroke:#263238;stroke-miterlimit:10"/>
        <rect x="385.41" y="238.48" width="6.71" height="139.45" style="fill:#F2F6FA;stroke:#263238;stroke-miterlimit:10"/>
        <rect x="415.59" y="238.48" width="6.71" height="139.45" style="fill:#F2F6FA;stroke:#263238;stroke-miterlimit:10"/>
        <rect x="437.15" y="238.48" width="6.71" height="139.45" style="fill:#F2F6FA;stroke:#263238;stroke-miterlimit:10"/>
        <rect x="459.66" y="238.48" width="6.71" height="139.45" style="fill:#F2F6FA;stroke:#263238;stroke-miterlimit:10"/>
        <rect x="481.22" y="238.48" width="6.71" height="139.45" style="fill:#263238;stroke:#263238;stroke-miterlimit:10"/>
        <rect x="421.69" y="175.51" width="4.51" height="61.39" style="fill:#F2F6FA;stroke:#263238;stroke-miterlimit:10"/>
        <polyline points="300.62 235.61 424.45 175.72 406.01 238.48" style="fill:none;stroke:#263238;stroke-miterlimit:10;stroke-width:2px"/>
        <rect x="313.55" y="234.65" width="257.25" height="3.83" style="fill:#F2F6FA;stroke:#263238;stroke-miterlimit:10"/>
        <rect x="560.26" y="234.65" width="10.54" height="3.83" style="fill:#263238;stroke:#263238;stroke-miterlimit:10"/>
        <polyline points="539.18 235.61 424.45 175.72 433.79 238.48" style="fill:none;stroke:#263238;stroke-miterlimit:10;stroke-width:2px"/>
        <rect x="295.35" y="234.65" width="257.25" height="3.83" style="fill:#F2F6FA;stroke:#263238;stroke-miterlimit:10"/>
        <rect x="542.06" y="234.65" width="10.54" height="3.83" style="fill:#263238;stroke:#263238;stroke-miterlimit:10"/>
        <rect x="415.35" y="171.41" width="18.2" height="8.14" style="fill:#F2F6FA;stroke:#263238;stroke-miterlimit:10"/>
        <rect x="406.25" y="169.02" width="35.45" height="2.4" style="fill:#F2F6FA;stroke:#263238;stroke-miterlimit:10"/>
        <rect x="336.44" y="365.45" width="45.52" height="12.2" style="fill:#fff;stroke:#263238;stroke-miterlimit:10"/>
        <rect x="350.72" y="365.45" width="31.24" height="12.2" style="fill:#fff;stroke:#263238;stroke-miterlimit:10"/>
        <rect x="336.44" y="353.55" width="45.52" height="12.2" style="fill:#c2c2c2;stroke:#263238;stroke-miterlimit:10"/>
        <rect x="350.72" y="353.55" width="31.24" height="12.2" style="fill:#c2c2c2;stroke:#263238;stroke-miterlimit:10"/>
        <rect x="336.44" y="341.65" width="45.52" height="12.2" style="fill:#fff;stroke:#263238;stroke-miterlimit:10"/>
        <rect x="350.72" y="341.65" width="31.24" height="12.2" style="fill:#fff;stroke:#263238;stroke-miterlimit:10"/>
        <rect x="353.4" y="365.45" width="45.52" height="12.2" style="fill:#F2F6FA;stroke:#263238;stroke-miterlimit:10"/>
        <rect x="367.68" y="365.45" width="31.24" height="12.2" style="fill:#F2F6FA;stroke:#263238;stroke-miterlimit:10"/>
        <rect x="353.4" y="353.55" width="45.52" height="12.2" style="fill:#fff;stroke:#263238;stroke-miterlimit:10"/>
        <rect x="367.68" y="353.55" width="31.24" height="12.2" style="fill:#fff;stroke:#263238;stroke-miterlimit:10"/>
        <rect x="353.4" y="341.65" width="45.52" height="12.2" style="fill:#8c8c8c;stroke:#263238;stroke-miterlimit:10"/>
        <rect x="367.68" y="341.65" width="31.24" height="12.2" style="fill:#8c8c8c;stroke:#263238;stroke-miterlimit:10"/>
        <rect x="370.36" y="365.45" width="45.52" height="12.2" style="fill:#c2c2c2;stroke:#263238;stroke-miterlimit:10"/>
        <rect x="384.64" y="365.45" width="31.24" height="12.2" style="fill:#c2c2c2;stroke:#263238;stroke-miterlimit:10"/>
        <rect x="370.36" y="353.55" width="45.52" height="12.2" style="fill:#F2F6FA;stroke:#263238;stroke-miterlimit:10"/>
        <rect x="384.64" y="353.55" width="31.24" height="12.2" style="fill:#F2F6FA;stroke:#263238;stroke-miterlimit:10"/>
        <rect x="370.36" y="341.65" width="45.52" height="12.2" style="fill:#fff;stroke:#263238;stroke-miterlimit:10"/>
        <rect x="384.64" y="341.65" width="31.24" height="12.2" style="fill:#fff;stroke:#263238;stroke-miterlimit:10"/>
        <rect x="309.72" y="238.48" width="27.78" height="5.27" style="fill:#F2F6FA;stroke:#263238;stroke-miterlimit:10"/>
        <rect x="341.34" y="238.48" width="27.78" height="5.27" style="fill:#F2F6FA;stroke:#263238;stroke-miterlimit:10"/>
        <rect x="505.17" y="238.48" width="27.78" height="5.27" style="fill:#F2F6FA;stroke:#263238;stroke-miterlimit:10"/>
        <rect x="536.79" y="238.48" width="27.78" height="5.27" style="fill:#F2F6FA;stroke:#263238;stroke-miterlimit:10"/>
        <rect x="519.37" y="319.15" width="51.13" height="55.29" style="fill:#fff;stroke:#263238;stroke-miterlimit:10"/>
        <rect x="519.37" y="322.59" width="51.13" height="55.29" style="fill:#fff;stroke:#263238;stroke-miterlimit:10"/>
        <line x1="528.29" y1="377.29" x2="528.29" y2="323.19" style="fill:none;stroke:#263238;stroke-miterlimit:10"/>
        <line x1="534.23" y1="377.29" x2="534.23" y2="323.19" style="fill:none;stroke:#263238;stroke-miterlimit:10"/>
        <line x1="527.97" y1="326.52" x2="533.66" y2="326.52" style="fill:none;stroke:#263238;stroke-miterlimit:10"/>
        <line x1="527.97" y1="331.36" x2="533.66" y2="331.36" style="fill:none;stroke:#263238;stroke-miterlimit:10"/>
        <line x1="527.97" y1="336.2" x2="533.66" y2="336.2" style="fill:none;stroke:#263238;stroke-miterlimit:10"/>
        <line x1="527.97" y1="341.04" x2="533.66" y2="341.04" style="fill:none;stroke:#263238;stroke-miterlimit:10"/>
        <line x1="527.97" y1="345.88" x2="533.66" y2="345.88" style="fill:none;stroke:#263238;stroke-miterlimit:10"/>
        <line x1="527.97" y1="350.71" x2="533.66" y2="350.71" style="fill:none;stroke:#263238;stroke-miterlimit:10"/>
        <line x1="527.97" y1="355.55" x2="533.66" y2="355.55" style="fill:none;stroke:#263238;stroke-miterlimit:10"/>
        <line x1="527.97" y1="360.39" x2="533.66" y2="360.39" style="fill:none;stroke:#263238;stroke-miterlimit:10"/>
        <line x1="527.97" y1="365.23" x2="533.66" y2="365.23" style="fill:none;stroke:#263238;stroke-miterlimit:10"/>
        <line x1="527.97" y1="370.06" x2="533.66" y2="370.06" style="fill:none;stroke:#263238;stroke-miterlimit:10"/>
        <line x1="527.97" y1="374.9" x2="533.66" y2="374.9" style="fill:none;stroke:#263238;stroke-miterlimit:10"/>
        <rect x="553.08" y="334.74" width="123.76" height="43.55" style="fill:#F2F6FA;stroke:#263238;stroke-miterlimit:10"/>
        <rect x="652.11" y="334.74" width="24.73" height="43.55" style="fill:#F2F6FA;stroke:#263238;stroke-miterlimit:10"/>
        <rect x="549.07" y="326.56" width="131.78" height="25.37" style="fill:#c2c2c2;stroke:#263238;stroke-miterlimit:10"/>
        <rect x="652.21" y="326.56" width="28.63" height="25.37" style="fill:#263238;stroke:#263238;stroke-miterlimit:10"/>
        <rect x="559.38" y="356.52" width="10.31" height="10.31" style="fill:#263238;stroke:#263238;stroke-miterlimit:10"/>
        <rect x="620.69" y="356.52" width="10.31" height="10.31" style="fill:#263238;stroke:#263238;stroke-miterlimit:10"/>
        <rect x="588.6" y="356.52" width="10.31" height="21.77" style="fill:#263238;stroke:#263238;stroke-miterlimit:10"/>
    </g>
    <g id="freepik--Water--inject-97">
        <line x1="495.6" y1="395.67" x2="514.86" y2="395.67" style="fill:none;stroke:#263238;stroke-miterlimit:10"/>
        <line x1="528.26" y1="396.5" x2="591.08" y2="396.5" style="fill:none;stroke:#263238;stroke-miterlimit:10"/>
        <line x1="19.05" y1="388.13" x2="734.3" y2="388.13" style="fill:none;stroke:#263238;stroke-miterlimit:10"/>
        <line x1="72.65" y1="403.2" x2="122.06" y2="403.2" style="fill:none;stroke:#263238;stroke-miterlimit:10"/>
        <line x1="154.73" y1="396.5" x2="284.54" y2="396.5" style="fill:none;stroke:#263238;stroke-miterlimit:10"/>
        <line x1="220.89" y1="403.2" x2="256.9" y2="403.2" style="fill:none;stroke:#263238;stroke-miterlimit:10"/>
        <line x1="145.51" y1="404.88" x2="163.1" y2="404.88" style="fill:none;stroke:#263238;stroke-miterlimit:10"/>
        <line x1="336.47" y1="394.83" x2="377.51" y2="394.83" style="fill:none;stroke:#263238;stroke-miterlimit:10"/>
        <line x1="307.99" y1="404.04" x2="366.62" y2="404.04" style="fill:none;stroke:#263238;stroke-miterlimit:10"/>
        <line x1="410.17" y1="399.85" x2="462.94" y2="399.85" style="fill:none;stroke:#263238;stroke-miterlimit:10"/>
        <line x1="466.29" y1="409.07" x2="518.21" y2="409.07" style="fill:none;stroke:#263238;stroke-miterlimit:10"/>
        <line x1="359.92" y1="419.12" x2="410.17" y2="419.12" style="fill:none;stroke:#263238;stroke-miterlimit:10"/>
        <line x1="560.93" y1="407.39" x2="586.05" y2="407.39" style="fill:none;stroke:#263238;stroke-miterlimit:10"/>
        <line x1="606.15" y1="399.85" x2="657.24" y2="399.85" style="fill:none;stroke:#263238;stroke-miterlimit:10"/>
        <line x1="605.32" y1="415.77" x2="647.19" y2="415.77" style="fill:none;stroke:#263238;stroke-miterlimit:10"/>
        <line x1="655.57" y1="409.07" x2="674.83" y2="409.07" style="fill:none;stroke:#263238;stroke-miterlimit:10"/>
        <line x1="684.05" y1="402.37" x2="714.2" y2="402.37" style="fill:none;stroke:#263238;stroke-miterlimit:10"/>
        <line x1="175.66" y1="413.25" x2="197.44" y2="413.25" style="fill:none;stroke:#263238;stroke-miterlimit:10"/>
        <line x1="60.92" y1="403.2" x2="50.03" y2="403.2" style="fill:none;stroke:#263238;stroke-miterlimit:10"/>
        <line x1="118.71" y1="419.95" x2="63.43" y2="419.95" style="fill:none;stroke:#263238;stroke-miterlimit:10"/>
    </g>
</svg>