<?xml version="1.0" encoding="UTF-8"?>
<!DOCTYPE svg PUBLIC "-//W3C//DTD SVG 1.1//EN" "http://www.w3.org/Graphics/SVG/1.1/DTD/svg11.dtd">
<svg xmlns="http://www.w3.org/2000/svg" version="1.1" width="3087px" height="906px" style="shape-rendering:geometricPrecision; text-rendering:geometricPrecision; image-rendering:optimizeQuality; fill-rule:evenodd; clip-rule:evenodd" xmlns:xlink="http://www.w3.org/1999/xlink">
<g><path style="opacity:0.988" fill="#fbc31c" d="M 383.5,-0.5 C 384.167,-0.5 384.833,-0.5 385.5,-0.5C 386.167,0.166667 386.833,0.833333 387.5,1.5C 386.502,31.9955 386.169,62.6621 386.5,93.5C 283.365,151.568 180.365,209.902 77.5,268.5C 51.4727,253.821 25.4727,239.155 -0.5,224.5C -0.5,222.167 -0.5,219.833 -0.5,217.5C 127.833,145.336 255.833,72.6694 383.5,-0.5 Z"/></g>
<g><path style="opacity:0.986" fill="#feaa00" d="M 387.5,1.5 C 512.473,72.3214 637.473,143.155 762.5,214C 765.199,215.577 765.866,217.743 764.5,220.5C 738.5,235.5 712.5,250.5 686.5,265.5C 586.723,207.711 486.723,150.378 386.5,93.5C 386.169,62.6621 386.502,31.9955 387.5,1.5 Z"/></g>
<g><path style="opacity:0.996" fill="#feb627" d="M 640.5,304.5 C 640.103,303.475 639.437,303.308 638.5,304C 552.104,353.86 465.771,403.694 379.5,453.5C 292.167,403.5 204.833,353.5 117.5,303.5C 117.104,300.956 117.771,298.789 119.5,297C 206.33,247.419 292.997,197.586 379.5,147.5C 466.337,197.753 553.337,247.753 640.5,297.5C 641.797,299.973 641.797,302.307 640.5,304.5 Z"/></g>
<g><path style="opacity:1" fill="#fac41c" d="M 2847.5,218.5 C 2874.5,218.5 2901.5,218.5 2928.5,218.5C 2928.5,359.833 2928.5,501.167 2928.5,642.5C 2901.5,642.5 2874.5,642.5 2847.5,642.5C 2847.5,501.167 2847.5,359.833 2847.5,218.5 Z"/></g>
<g><path style="opacity:0.986" fill="#feaa00" d="M -0.5,224.5 C 25.4727,239.155 51.4727,253.821 77.5,268.5C 77.5,387.167 77.5,505.833 77.5,624.5C 52.3868,609.893 27.3868,595.06 2.5,580C 1.55198,579.517 0.551975,579.351 -0.5,579.5C -0.5,461.167 -0.5,342.833 -0.5,224.5 Z"/></g>
<g><path style="opacity:1" fill="#d78601" d="M 513.5,229.5 C 514.933,230.833 516.267,232.333 517.5,234C 431.663,283.753 345.663,333.253 259.5,382.5C 257.697,380.795 257.031,378.962 257.5,377C 343.059,328.059 428.393,278.892 513.5,229.5 Z"/></g>
<g><path style="opacity:0.988" fill="#1d418a" d="M 1052.5,230.5 C 1089.27,227.565 1124.93,232.399 1159.5,245C 1216.89,270.568 1252.56,314.068 1266.5,375.5C 1237.83,375.667 1209.16,375.5 1180.5,375C 1159.88,329.418 1124.38,306.251 1074,305.5C 1019.07,308.091 983.738,335.757 968,388.5C 957.78,427.635 960.114,465.969 975,503.5C 1001.4,553.948 1042.9,574.448 1099.5,565C 1138.22,556.441 1165.22,533.941 1180.5,497.5C 1209.16,496.5 1237.83,496.167 1266.5,496.5C 1248.39,572.443 1201.39,619.609 1125.5,638C 1078.92,647.403 1033.58,643.403 989.5,626C 937.738,601.001 903.905,560.834 888,505.5C 874.182,452.889 876.182,400.889 894,349.5C 923.498,278.844 976.332,239.178 1052.5,230.5 Z"/></g>
<g><path style="opacity:0.988" fill="#fac41c" d="M 2168.5,237.5 C 2270.17,237.5 2371.83,237.5 2473.5,237.5C 2473.5,259.167 2473.5,280.833 2473.5,302.5C 2436.17,302.5 2398.83,302.5 2361.5,302.5C 2361.5,415.833 2361.5,529.167 2361.5,642.5C 2334.17,642.5 2306.83,642.5 2279.5,642.5C 2279.5,529.167 2279.5,415.833 2279.5,302.5C 2242.5,302.5 2205.5,302.5 2168.5,302.5C 2168.5,280.833 2168.5,259.167 2168.5,237.5 Z"/></g>
<g><path style="opacity:0.988" fill="#1d418a" d="M 1977.5,246.5 C 2004.83,246.5 2032.17,246.5 2059.5,246.5C 2059.5,272.5 2059.5,298.5 2059.5,324.5C 2083.17,324.5 2106.83,324.5 2130.5,324.5C 2130.5,347.5 2130.5,370.5 2130.5,393.5C 2106.83,393.5 2083.17,393.5 2059.5,393.5C 2059.33,442.834 2059.5,492.168 2060,541.5C 2060.47,557.298 2068.31,567.131 2083.5,571C 2099.46,572.404 2115.46,572.904 2131.5,572.5C 2131.5,595.833 2131.5,619.167 2131.5,642.5C 2110.83,642.667 2090.16,642.5 2069.5,642C 2009.94,635.803 1979.44,602.636 1978,542.5C 1977.5,492.834 1977.33,443.168 1977.5,393.5C 1962.83,393.5 1948.17,393.5 1933.5,393.5C 1933.5,370.5 1933.5,347.5 1933.5,324.5C 1948.17,324.5 1962.83,324.5 1977.5,324.5C 1977.5,298.5 1977.5,272.5 1977.5,246.5 Z"/></g>
<g><path style="opacity:0.998" fill="#1d4289" d="M 640.5,304.5 C 640.667,402.834 640.5,501.167 640,599.5C 553.361,652.566 466.527,705.233 379.5,757.5C 379.5,656.167 379.5,554.833 379.5,453.5C 465.771,403.694 552.104,353.86 638.5,304C 639.437,303.308 640.103,303.475 640.5,304.5 Z"/></g>
<g><path style="opacity:0.997" fill="#fbc31d" d="M 117.5,303.5 C 204.833,353.5 292.167,403.5 379.5,453.5C 379.5,554.833 379.5,656.167 379.5,757.5C 291.886,705.059 204.386,652.393 117,599.5C 117.309,500.836 117.475,402.169 117.5,303.5 Z"/></g>
<g><path style="opacity:0.986" fill="#1d418a" d="M 1438.5,316.5 C 1472.2,313.67 1502.53,322.17 1529.5,342C 1542.41,352.907 1552.25,366.074 1559,381.5C 1559.5,361.169 1559.67,340.836 1559.5,320.5C 1586.83,320.5 1614.17,320.5 1641.5,320.5C 1641.5,426.5 1641.5,532.5 1641.5,638.5C 1614.17,638.5 1586.83,638.5 1559.5,638.5C 1559.67,618.164 1559.5,597.831 1559,577.5C 1542.14,613.014 1514.31,634.181 1475.5,641C 1428.4,648.193 1387.56,635.693 1353,603.5C 1329.68,576.927 1316.02,545.927 1312,510.5C 1306.61,470.419 1311.61,431.752 1327,394.5C 1349.92,348.125 1387.08,322.125 1438.5,316.5 Z M 1473.5,387.5 C 1522.99,389.825 1551.49,415.492 1559,464.5C 1563.6,496.302 1555.43,524.136 1534.5,548C 1510.77,568.765 1483.44,575.432 1452.5,568C 1428.23,561.402 1411.07,546.568 1401,523.5C 1393.93,504.098 1391.6,484.098 1394,463.5C 1400.6,417.059 1427.1,391.725 1473.5,387.5 Z"/></g>
<g><path style="opacity:0.988" fill="#fac41c" d="M 2619.5,316.5 C 2666.03,312.629 2707.37,325.129 2743.5,354C 2779.65,389.516 2795.15,432.682 2790,483.5C 2789.36,487.491 2788.86,491.491 2788.5,495.5C 2710.83,495.5 2633.17,495.5 2555.5,495.5C 2558.4,552.913 2588.4,579.747 2645.5,576C 2674.13,571.372 2692.47,555.206 2700.5,527.5C 2729.16,526.5 2757.83,526.167 2786.5,526.5C 2775.84,577.659 2746.18,612.826 2697.5,632C 2670.93,641.404 2643.6,644.738 2615.5,642C 2535.39,631.552 2489.22,586.386 2477,506.5C 2471.52,465.35 2478.18,426.35 2497,389.5C 2519.73,351.693 2552.9,328.526 2596.5,320C 2604.3,318.767 2611.97,317.601 2619.5,316.5 Z M 2621.5,381.5 C 2646.24,378.349 2668.24,384.516 2687.5,400C 2703.7,416.431 2710.7,436.264 2708.5,459.5C 2657.5,459.5 2606.5,459.5 2555.5,459.5C 2557.8,416.557 2579.8,390.557 2621.5,381.5 Z"/></g>
<g><path style="opacity:0.987" fill="#1d418a" d="M 1887.5,319.5 C 1888.83,319.5 1890.17,319.5 1891.5,319.5C 1891.5,348.833 1891.5,378.167 1891.5,407.5C 1872.36,406.67 1853.36,407.836 1834.5,411C 1801.68,419.496 1783.51,440.663 1780,474.5C 1779.5,530.499 1779.33,586.499 1779.5,642.5C 1752.17,642.5 1724.83,642.5 1697.5,642.5C 1697.5,536.5 1697.5,430.5 1697.5,324.5C 1724.83,324.5 1752.17,324.5 1779.5,324.5C 1779.33,343.836 1779.5,363.17 1780,382.5C 1804.81,342.896 1840.64,321.896 1887.5,319.5 Z"/></g>
<g><path style="opacity:1" fill="#f7c120" d="M 564.5,481.5 C 563.761,481.369 563.094,481.536 562.5,482C 563.337,483.011 563.67,484.178 563.5,485.5C 563.5,486.167 563.5,486.833 563.5,487.5C 562.167,488.833 562.167,490.167 563.5,491.5C 562.802,494.896 562.802,498.229 563.5,501.5C 562.689,502.216 562.022,503.05 561.5,504C 562.069,507.718 562.402,511.385 562.5,515C 561.331,517.62 560.331,520.287 559.5,523C 560.148,524.44 560.481,525.94 560.5,527.5C 559.711,527.783 559.044,528.283 558.5,529C 559.337,530.011 559.67,531.178 559.5,532.5C 559.833,533.167 560.167,533.833 560.5,534.5C 559.414,534.62 558.747,535.287 558.5,536.5C 558.543,537.416 558.876,538.083 559.5,538.5C 558.605,541.738 558.605,544.905 559.5,548C 557.279,549.669 556.945,551.669 558.5,554C 558.095,554.945 557.428,555.612 556.5,556C 557.177,562.349 557.177,568.516 556.5,574.5C 555.761,574.369 555.094,574.536 554.5,575C 555.337,576.011 555.67,577.178 555.5,578.5C 555.833,579.167 556.167,579.833 556.5,580.5C 554.31,581.748 553.977,583.414 555.5,585.5C 555.33,586.822 555.663,587.989 556.5,589C 554.213,590.427 553.88,592.261 555.5,594.5C 554.147,595.524 553.48,596.857 553.5,598.5C 549.926,599.618 546.759,599.618 544,598.5C 543.448,595.953 542.114,593.953 540,592.5C 539.667,592.833 539.333,593.167 539,593.5C 537.43,592.386 536.097,591.053 535,589.5C 534.667,589.833 534.333,590.167 534,590.5C 533.326,588.483 532.159,586.817 530.5,585.5C 526.234,583.234 522.567,580.234 519.5,576.5C 518.914,576.709 518.414,577.043 518,577.5C 516.968,575.973 515.801,574.64 514.5,573.5C 513.965,571.554 512.632,570.554 510.5,570.5C 509.086,568.946 507.419,567.612 505.5,566.5C 505.013,565.554 504.68,564.554 504.5,563.5C 505.522,560.314 506.855,557.314 508.5,554.5C 509.718,553.269 511.051,552.102 512.5,551C 511.944,550.617 511.611,550.117 511.5,549.5C 512.904,542.745 515.904,536.912 520.5,532C 519.978,531.439 519.645,530.772 519.5,530C 521.682,526.565 523.682,523.065 525.5,519.5C 527.25,518.341 528.25,516.674 528.5,514.5C 529.904,507.745 532.904,501.912 537.5,497C 536.978,496.439 536.645,495.772 536.5,495C 538.682,491.565 540.682,488.065 542.5,484.5C 544.784,483.323 545.118,481.656 543.5,479.5C 540.603,479.981 538.936,481.648 538.5,484.5C 536.833,486.5 535.167,488.5 533.5,490.5C 531.259,491.3 530.259,492.966 530.5,495.5C 525.922,500.289 521.589,505.289 517.5,510.5C 516.069,511.446 514.736,512.612 513.5,514C 514.056,514.383 514.389,514.883 514.5,515.5C 511.361,517.471 509.361,519.971 508.5,523C 507.5,523.333 506.5,523.667 505.5,524C 505.833,524.333 506.167,524.667 506.5,525C 505.167,526.333 503.833,527.667 502.5,529C 502.833,529.333 503.167,529.667 503.5,530C 502.027,530.71 501.36,531.876 501.5,533.5C 500.167,533.5 498.833,533.5 497.5,533.5C 496.167,536.833 494.833,540.167 493.5,543.5C 492.167,543.5 490.833,543.5 489.5,543.5C 488.937,546.374 487.937,549.04 486.5,551.5C 484.473,551.662 482.473,551.495 480.5,551C 478.531,549.074 476.198,547.908 473.5,547.5C 472.965,545.554 471.632,544.554 469.5,544.5C 466.908,544.454 464.741,543.454 463,541.5C 462.228,541.645 461.561,541.978 461,542.5C 458,540.167 455,537.833 452,535.5C 449.902,535.815 447.902,535.815 446,535.5C 444.312,532.597 441.812,530.93 438.5,530.5C 437.965,528.554 436.632,527.554 434.5,527.5C 431.824,524.314 432.158,521.481 435.5,519C 436.793,518.51 438.127,518.343 439.5,518.5C 439.5,517.5 439.5,516.5 439.5,515.5C 440.873,515.657 442.207,515.49 443.5,515C 449.862,510.618 456.362,506.451 463,502.5C 464.811,501.922 466.645,501.422 468.5,501C 469.833,500.333 469.833,499.667 468.5,499C 472.434,497.21 476.434,495.71 480.5,494.5C 480.5,493.5 480.5,492.5 480.5,491.5C 481.873,491.657 483.207,491.49 484.5,491C 486.246,488.741 488.58,487.408 491.5,487C 491.167,486.667 490.833,486.333 490.5,486C 494.405,484.599 498.071,482.932 501.5,481C 502.833,480.333 502.833,479.667 501.5,479C 504.117,478.178 506.784,477.678 509.5,477.5C 509.5,476.5 509.5,475.5 509.5,474.5C 510.873,474.657 512.207,474.49 513.5,474C 515.556,472.033 518.223,470.033 521.5,468C 523.167,467.667 524.833,467.333 526.5,467C 525.167,466.333 525.167,465.667 526.5,465C 529.929,463.068 533.595,461.401 537.5,460C 537.167,459.667 536.833,459.333 536.5,459C 538.345,457.872 540.345,457.372 542.5,457.5C 542.5,456.5 542.5,455.5 542.5,454.5C 547.053,453.418 551.387,452.085 555.5,450.5C 555.5,449.5 555.5,448.5 555.5,447.5C 559.074,446.382 562.241,446.382 565,447.5C 565.761,450.053 566.594,452.553 567.5,455C 565.203,456.58 564.869,458.58 566.5,461C 565.978,461.95 565.311,462.784 564.5,463.5C 564.888,469.471 564.888,475.471 564.5,481.5 Z"/></g>
<g><path style="opacity:1" fill="#415778" d="M 543.5,479.5 C 543.639,477.663 544.306,477.33 545.5,478.5C 545.043,479.298 544.376,479.631 543.5,479.5 Z"/></g>
<g><path style="opacity:1" fill="#877b5a" d="M 543.5,479.5 C 545.118,481.656 544.784,483.323 542.5,484.5C 542.631,483.624 542.298,482.957 541.5,482.5C 540.735,483.612 539.735,484.279 538.5,484.5C 538.936,481.648 540.603,479.981 543.5,479.5 Z"/></g>
<g><path style="opacity:1" fill="#666a68" d="M 564.5,481.5 C 566.175,483.456 565.842,484.789 563.5,485.5C 563.67,484.178 563.337,483.011 562.5,482C 563.094,481.536 563.761,481.369 564.5,481.5 Z"/></g>
<g><path style="opacity:1" fill="#6f7063" d="M 563.5,487.5 C 564.833,488.833 564.833,490.167 563.5,491.5C 562.167,490.167 562.167,488.833 563.5,487.5 Z"/></g>
<g><path style="opacity:1" fill="#807b5a" d="M 533.5,490.5 C 533.25,492.674 532.25,494.341 530.5,495.5C 530.259,492.966 531.259,491.3 533.5,490.5 Z"/></g>
<g><path style="opacity:1" fill="#74745f" d="M 517.5,510.5 C 517.408,512.848 516.408,514.514 514.5,515.5C 514.389,514.883 514.056,514.383 513.5,514C 514.736,512.612 516.069,511.446 517.5,510.5 Z"/></g>
<g><path style="opacity:1" fill="#9c8c4b" d="M 528.5,514.5 C 528.25,516.674 527.25,518.341 525.5,519.5C 525.259,516.966 526.259,515.3 528.5,514.5 Z"/></g>
<g><path style="opacity:1" fill="#9f8d49" d="M 434.5,527.5 C 436.632,527.554 437.965,528.554 438.5,530.5C 437.883,530.611 437.383,530.944 437,531.5C 435.915,530.264 435.082,528.931 434.5,527.5 Z"/></g>
<g><path style="opacity:1" fill="#686c67" d="M 560.5,527.5 C 562.023,529.586 561.69,531.252 559.5,532.5C 559.67,531.178 559.337,530.011 558.5,529C 559.044,528.283 559.711,527.783 560.5,527.5 Z"/></g>
<g><path style="opacity:1" fill="#6e7064" d="M 560.5,534.5 C 560.33,535.822 560.663,536.989 561.5,538C 560.906,538.464 560.239,538.631 559.5,538.5C 558.876,538.083 558.543,537.416 558.5,536.5C 558.747,535.287 559.414,534.62 560.5,534.5 Z"/></g>
<g><path style="opacity:0.983" fill="#1d418a" d="M 3086.5,582.5 C 3086.5,588.833 3086.5,595.167 3086.5,601.5C 3077.99,631.613 3057.99,645.113 3026.5,642C 3000.78,635.277 2987.12,618.611 2985.5,592C 2987.12,565.389 3000.78,548.723 3026.5,542C 3058,538.889 3078,552.389 3086.5,582.5 Z"/></g>
<g><path style="opacity:1" fill="#938651" d="M 469.5,544.5 C 471.632,544.554 472.965,545.554 473.5,547.5C 472.883,547.611 472.383,547.944 472,548.5C 470.915,547.264 470.082,545.931 469.5,544.5 Z"/></g>
<g><path style="opacity:1" fill="#94874f" d="M 511.5,549.5 C 511.611,550.117 511.944,550.617 512.5,551C 511.051,552.102 509.718,553.269 508.5,554.5C 508.592,552.152 509.592,550.486 511.5,549.5 Z"/></g>
<g><path style="opacity:1" fill="#7e795b" d="M 510.5,570.5 C 512.632,570.554 513.965,571.554 514.5,573.5C 512.368,573.446 511.035,572.446 510.5,570.5 Z"/></g>
<g><path style="opacity:1" fill="#676b67" d="M 556.5,574.5 C 558.175,576.456 557.842,577.789 555.5,578.5C 555.67,577.178 555.337,576.011 554.5,575C 555.094,574.536 555.761,574.369 556.5,574.5 Z"/></g>
<g><path style="opacity:0.988" fill="#fbc31c" d="M -0.5,579.5 C 0.551975,579.351 1.55198,579.517 2.5,580C 27.3868,595.06 52.3868,609.893 77.5,624.5C 180.334,687.085 283.334,749.418 386.5,811.5C 387.661,837.821 388.661,864.155 389.5,890.5C 389.493,895.551 388.827,900.217 387.5,904.5C 258.139,827.822 128.806,751.155 -0.5,674.5C -0.5,642.833 -0.5,611.167 -0.5,579.5 Z"/></g>
<g><path style="opacity:1" fill="#717163" d="M 556.5,580.5 C 556.784,582.415 556.451,584.081 555.5,585.5C 553.977,583.414 554.31,581.748 556.5,580.5 Z"/></g>
<g><path style="opacity:0.986" fill="#feb726" d="M 391.5,905.5 C 390.167,905.5 388.833,905.5 387.5,905.5C 387.5,905.167 387.5,904.833 387.5,904.5C 388.827,900.217 389.493,895.551 389.5,890.5C 388.661,864.155 387.661,837.821 386.5,811.5C 485.017,750.495 583.684,689.662 682.5,629C 683.833,628.333 685.167,628.333 686.5,629C 712.833,643.833 739.167,658.667 765.5,673.5C 640.805,750.844 516.139,828.178 391.5,905.5 Z"/></g>
</svg>
