<svg xmlns="http://www.w3.org/2000/svg" width="17" height="16" viewBox="0 0 17 16" fill="none">
    <path d="M13.1667 0.666016H3.83333C2.9496 0.667074 2.10237 1.0186 1.47748 1.6435C0.852588 2.26839 0.501059 3.11562 0.5 3.99935L0.5 11.9993C0.501059 12.8831 0.852588 13.7303 1.47748 14.3552C2.10237 14.9801 2.9496 15.3316 3.83333 15.3327H13.1667C14.0504 15.3316 14.8976 14.9801 15.5225 14.3552C16.1474 13.7303 16.4989 12.8831 16.5 11.9993V3.99935C16.4989 3.11562 16.1474 2.26839 15.5225 1.6435C14.8976 1.0186 14.0504 0.667074 13.1667 0.666016ZM3.83333 1.99935H13.1667C13.5659 2.00013 13.9557 2.12036 14.286 2.34455C14.6163 2.56874 14.8719 2.88665 15.02 3.25735L9.91467 8.36335C9.53895 8.73756 9.03028 8.94766 8.5 8.94766C7.96972 8.94766 7.46105 8.73756 7.08533 8.36335L1.98 3.25735C2.1281 2.88665 2.38374 2.56874 2.71403 2.34455C3.04432 2.12036 3.43414 2.00013 3.83333 1.99935ZM13.1667 13.9993H3.83333C3.3029 13.9993 2.79419 13.7886 2.41912 13.4136C2.04405 13.0385 1.83333 12.5298 1.83333 11.9993V4.99935L6.14267 9.30602C6.76842 9.93019 7.61617 10.2807 8.5 10.2807C9.38383 10.2807 10.2316 9.93019 10.8573 9.30602L15.1667 4.99935V11.9993C15.1667 12.5298 14.956 13.0385 14.5809 13.4136C14.2058 13.7886 13.6971 13.9993 13.1667 13.9993Z" fill="#281B1F"/>
</svg>