<svg width="20" height="20" viewBox="0 0 20 20" fill="none" xmlns="http://www.w3.org/2000/svg">
<path d="M6.66406 1.66602V4.16602" stroke="#EA363C" strokeWidth="1.5" stroke-miterlimit="10" strokeLinecap="round" strokeLinejoin="round"/>
<path d="M13.3359 1.66602V4.16602" stroke="#EA363C" strokeWidth="1.5" stroke-miterlimit="10" strokeLinecap="round" strokeLinejoin="round"/>
<path d="M2.91406 7.5752H17.0807" stroke="#EA363C" strokeWidth="1.5" stroke-miterlimit="10" strokeLinecap="round" strokeLinejoin="round"/>
<path d="M18.3385 15.8333C18.3385 16.4583 18.1635 17.05 17.8552 17.55C17.2802 18.5167 16.2219 19.1667 15.0052 19.1667C14.1635 19.1667 13.3969 18.8583 12.8135 18.3333C12.5552 18.1167 12.3302 17.85 12.1552 17.55C11.8469 17.05 11.6719 16.4583 11.6719 15.8333C11.6719 13.9917 13.1635 12.5 15.0052 12.5C16.0052 12.5 16.8969 12.9417 17.5052 13.6333C18.0219 14.225 18.3385 14.9917 18.3385 15.8333Z" stroke="#EA363C" strokeWidth="1.5" stroke-miterlimit="10" strokeLinecap="round" strokeLinejoin="round"/>
<path d="M13.707 15.8333L14.532 16.6583L16.307 15.0166" stroke="#EA363C" strokeWidth="1.5" strokeLinecap="round" strokeLinejoin="round"/>
<path d="M17.5 7.08268V13.6327C16.8917 12.941 16 12.4993 15 12.4993C13.1583 12.4993 11.6667 13.991 11.6667 15.8327C11.6667 16.4577 11.8417 17.0493 12.15 17.5493C12.325 17.8493 12.55 18.116 12.8083 18.3327H6.66667C3.75 18.3327 2.5 16.666 2.5 14.166V7.08268C2.5 4.58268 3.75 2.91602 6.66667 2.91602H13.3333C16.25 2.91602 17.5 4.58268 17.5 7.08268Z" stroke="#EA363C" strokeWidth="1.5" stroke-miterlimit="10" strokeLinecap="round" strokeLinejoin="round"/>
<path d="M9.99803 11.4167H10.0055" stroke="#EA363C" strokeWidth="1.5" strokeLinecap="round" strokeLinejoin="round"/>
<path d="M6.91209 11.4167H6.91957" stroke="#EA363C" strokeWidth="1.5" strokeLinecap="round" strokeLinejoin="round"/>
<path d="M6.91209 13.9167H6.91957" stroke="#EA363C" strokeWidth="1.5" strokeLinecap="round" strokeLinejoin="round"/>
</svg>
