<svg width="20" height="20" viewBox="0 0 20 20" fill="none" xmlns="http://www.w3.org/2000/svg">
<path d="M7.14062 12.7254L12.5906 7.27539" stroke="#029B5B" strokeWidth="1.5" strokeLinecap="round" strokeLinejoin="round"/>
<path d="M7.48204 8.64179C8.04813 8.64179 8.50702 8.1829 8.50702 7.61681C8.50702 7.05071 8.04813 6.5918 7.48204 6.5918C6.91595 6.5918 6.45703 7.05071 6.45703 7.61681C6.45703 8.1829 6.91595 8.64179 7.48204 8.64179Z" stroke="#029B5B" strokeWidth="1.5" strokeLinecap="round" strokeLinejoin="round"/>
<path d="M12.9351 13.4084C13.5012 13.4084 13.9601 12.9495 13.9601 12.3834C13.9601 11.8173 13.5012 11.3584 12.9351 11.3584C12.369 11.3584 11.9102 11.8173 11.9102 12.3834C11.9102 12.9495 12.369 13.4084 12.9351 13.4084Z" stroke="#029B5B" strokeWidth="1.5" strokeLinecap="round" strokeLinejoin="round"/>
<path d="M10.0013 18.3337C14.6037 18.3337 18.3346 14.6027 18.3346 10.0003C18.3346 5.39795 14.6037 1.66699 10.0013 1.66699C5.39893 1.66699 1.66797 5.39795 1.66797 10.0003C1.66797 14.6027 5.39893 18.3337 10.0013 18.3337Z" stroke="#029B5B" strokeWidth="1.5" strokeLinecap="round" strokeLinejoin="round"/>
</svg>
