<?xml version="1.0" encoding="iso-8859-1"?>
<!-- Uploaded to: SVG Repo, www.svgrepo.com, Generator: SVG Repo Mixer Tools -->
<svg fill="#ffff" height="800px" width="800px" version="1.1" id="Layer_1" xmlns="http://www.w3.org/2000/svg" xmlns:xlink="http://www.w3.org/1999/xlink" 
	 viewBox="0 0 512 512" xml:space="preserve">
<g>
	<g>
		<path d="M495.005,39.461H120.49c-2.897,0-5.745,0.741-8.277,2.152L8.719,99.322C3.336,102.323,0,108.003,0,114.165v341.378
			c0,9.386,7.609,16.995,16.995,16.995h378.354c3.323,0,6.422-0.953,9.04-2.601l98.926-55.461c5.364-3.007,8.685-8.675,8.685-14.824
			V56.457C512,47.071,504.391,39.461,495.005,39.461z M378.354,438.547H33.99V129.321h99.847v61.929
			c0,9.386,7.609,16.995,16.995,16.995h89.844c9.386,0,16.995-7.609,16.995-16.995v-61.929h120.682V438.547z M167.828,174.255
			v-44.934h55.854v44.934H167.828z M390.91,95.331H85.668l39.239-21.88h305.03L390.91,95.331z M478.01,389.695l-65.666,36.814
			V122.282l65.666-36.814V389.695z"/>
	</g>
</g>
</svg>